<svg width="1426" height="255" viewBox="0 0 1426 255" fill="none" xmlns="http://www.w3.org/2000/svg">
<path d="M261.93 236.32C261.93 238.746 261.452 241.147 260.524 243.388C259.596 245.629 258.235 247.665 256.52 249.38C254.805 251.095 252.769 252.456 250.528 253.384C248.287 254.312 245.886 254.79 243.46 254.79C238.561 254.79 233.864 252.844 230.4 249.38C226.936 245.917 224.99 241.219 224.99 236.32C224.99 231.422 226.936 226.724 230.4 223.26C233.864 219.796 238.561 217.85 243.46 217.85C245.886 217.85 248.287 218.328 250.528 219.256C252.769 220.184 254.805 221.545 256.52 223.26C258.235 224.975 259.596 227.011 260.524 229.252C261.452 231.493 261.93 233.895 261.93 236.32ZM244.091 249.496C247.408 249.346 250.526 247.807 252.759 245.218C254.992 242.629 256.157 239.203 255.997 235.692C255.918 233.954 255.517 232.247 254.815 230.67C254.114 229.093 253.126 227.675 251.909 226.499C250.692 225.323 249.269 224.41 247.721 223.814C246.173 223.218 244.531 222.949 242.889 223.024C239.572 223.174 236.454 224.713 234.221 227.302C231.988 229.891 230.824 233.317 230.983 236.828C231.062 238.566 231.463 240.273 232.165 241.85C232.866 243.428 233.854 244.845 235.071 246.021C236.288 247.198 237.711 248.11 239.259 248.706C240.807 249.303 242.449 249.571 244.091 249.496Z" fill="#B0B8BA"/>
<path d="M451.9 249.98L450.93 253.38C450.83 253.734 450.597 253.92 450.23 253.94L446.67 254.15C446.45 254.163 446.231 254.12 446.032 254.024C445.834 253.928 445.663 253.783 445.537 253.602C445.411 253.422 445.333 253.212 445.311 252.993C445.288 252.774 445.323 252.552 445.41 252.35C449.81 242.217 454.083 232.21 458.23 222.33C458.857 220.824 459.563 219.424 460.35 218.13C460.382 218.081 460.426 218.04 460.479 218.013C460.531 217.987 460.59 217.975 460.648 217.979C460.706 217.983 460.761 218.003 460.807 218.037C460.853 218.071 460.889 218.117 460.91 218.17L476.13 253.43C476.45 254.17 476.21 254.49 475.41 254.39L470.64 253.8C470.3 253.76 470.077 253.577 469.97 253.25L468.82 249.81C468.64 249.27 468.267 249.007 467.7 249.02L452.87 249.24C452.363 249.247 452.04 249.494 451.9 249.98ZM454.59 243.57C454.561 243.642 454.55 243.72 454.557 243.797C454.565 243.874 454.59 243.948 454.633 244.013C454.675 244.077 454.732 244.131 454.8 244.169C454.867 244.207 454.943 244.228 455.02 244.23L465.65 244.36C465.729 244.362 465.807 244.345 465.877 244.309C465.947 244.274 466.008 244.222 466.053 244.158C466.098 244.094 466.127 244.019 466.137 243.941C466.147 243.863 466.138 243.784 466.11 243.71L460.96 230.21C460.927 230.118 460.866 230.038 460.787 229.981C460.707 229.924 460.611 229.893 460.513 229.892C460.416 229.891 460.32 229.92 460.238 229.975C460.157 230.03 460.095 230.109 460.06 230.2L454.59 243.57Z" fill="#B0B8BA"/>
<path d="M1036.01 236.31C1036.01 238.735 1035.53 241.137 1034.6 243.378C1033.68 245.619 1032.32 247.655 1030.6 249.37C1028.89 251.085 1026.85 252.446 1024.61 253.374C1022.37 254.302 1019.97 254.78 1017.54 254.78C1015.11 254.78 1012.71 254.302 1010.47 253.374C1008.23 252.446 1006.19 251.085 1004.48 249.37C1002.76 247.655 1001.4 245.619 1000.48 243.378C999.548 241.137 999.07 238.735 999.07 236.31C999.07 233.884 999.548 231.483 1000.48 229.242C1001.4 227.001 1002.76 224.965 1004.48 223.25C1006.19 221.534 1008.23 220.174 1010.47 219.246C1012.71 218.318 1015.11 217.84 1017.54 217.84C1022.44 217.84 1027.14 219.786 1030.6 223.25C1034.06 226.713 1036.01 231.411 1036.01 236.31ZM1017.42 249.429C1020.75 249.458 1023.95 248.099 1026.33 245.65C1028.71 243.2 1030.06 239.862 1030.09 236.369C1030.1 234.64 1029.79 232.925 1029.18 231.321C1028.56 229.718 1027.65 228.258 1026.49 227.025C1025.34 225.792 1023.96 224.81 1022.44 224.135C1020.92 223.46 1019.29 223.105 1017.64 223.09C1014.31 223.061 1011.11 224.421 1008.73 226.87C1006.35 229.319 1005 232.657 1004.97 236.15C1004.96 237.88 1005.27 239.595 1005.88 241.198C1006.5 242.802 1007.41 244.262 1008.57 245.495C1009.72 246.728 1011.1 247.71 1012.62 248.385C1014.14 249.06 1015.77 249.415 1017.42 249.429Z" fill="#B0B8BA"/>
<path d="M1080.85 241.15L1080.68 219.36C1080.68 219.152 1080.76 218.951 1080.9 218.798C1081.04 218.645 1081.24 218.553 1081.45 218.54L1085.22 218.32C1085.34 218.313 1085.45 218.33 1085.56 218.371C1085.67 218.411 1085.78 218.473 1085.86 218.554C1085.95 218.634 1086.01 218.731 1086.06 218.839C1086.11 218.947 1086.13 219.063 1086.13 219.18L1086.29 253.02C1086.29 253.239 1086.22 253.453 1086.1 253.634C1085.98 253.815 1085.8 253.955 1085.6 254.035C1085.39 254.115 1085.17 254.131 1084.96 254.082C1084.74 254.033 1084.55 253.921 1084.4 253.76L1063.74 231.1C1063.67 231.021 1063.57 230.966 1063.46 230.942C1063.36 230.917 1063.25 230.925 1063.15 230.964C1063.05 231.003 1062.96 231.071 1062.9 231.16C1062.84 231.248 1062.81 231.353 1062.81 231.46L1062.88 253.26C1062.88 253.773 1062.62 254.03 1062.11 254.03L1058.21 254.04C1057.76 254.04 1057.54 253.813 1057.54 253.36C1057.57 242.52 1057.52 231.693 1057.4 220.88C1057.39 219.88 1057.53 219.083 1057.81 218.49C1058.06 217.977 1058.37 217.927 1058.76 218.34L1080.2 241.41C1080.63 241.87 1080.85 241.783 1080.85 241.15Z" fill="#B0B8BA"/>
<path d="M1214.12 236.3C1214.12 241.204 1212.17 245.907 1208.7 249.374C1205.24 252.842 1200.53 254.79 1195.63 254.79C1190.73 254.79 1186.02 252.842 1182.56 249.374C1179.09 245.907 1177.14 241.204 1177.14 236.3C1177.14 231.396 1179.09 226.693 1182.56 223.226C1186.02 219.758 1190.73 217.81 1195.63 217.81C1200.53 217.81 1205.24 219.758 1208.7 223.226C1212.17 226.693 1214.12 231.396 1214.12 236.3ZM1195.42 249.478C1198.74 249.536 1201.95 248.203 1204.34 245.773C1206.73 243.342 1208.11 240.014 1208.17 236.519C1208.2 234.788 1207.9 233.069 1207.3 231.459C1206.7 229.849 1205.81 228.38 1204.66 227.136C1203.52 225.892 1202.16 224.898 1200.65 224.209C1199.15 223.52 1197.52 223.151 1195.88 223.122C1192.56 223.064 1189.35 224.397 1186.96 226.827C1184.57 229.258 1183.19 232.587 1183.13 236.082C1183.1 237.812 1183.4 239.531 1184 241.141C1184.6 242.751 1185.49 244.22 1186.64 245.464C1187.78 246.708 1189.14 247.703 1190.65 248.391C1192.15 249.08 1193.78 249.449 1195.42 249.478Z" fill="#B0B8BA"/>
<path d="M103.097 236.99C102.919 241.859 100.794 246.457 97.1891 249.772C93.5845 253.087 88.796 254.848 83.8769 254.668C81.4412 254.579 79.0467 254.015 76.8302 253.01C74.6138 252.005 72.6187 250.578 70.9589 248.81C69.2991 247.042 68.0071 244.969 67.1567 242.707C66.3063 240.446 65.914 238.041 66.0024 235.63C66.181 230.761 68.3063 226.164 71.9108 222.849C75.5154 219.533 80.3039 217.772 85.223 217.953C87.6587 218.042 90.0532 218.605 92.2696 219.61C94.4861 220.615 96.4812 222.042 98.141 223.81C99.8008 225.578 101.093 227.652 101.943 229.913C102.794 232.175 103.186 234.58 103.097 236.99ZM84.6688 249.49C87.9946 249.473 91.1769 248.069 93.5156 245.589C95.8544 243.109 97.158 239.755 97.1397 236.265C97.1215 232.774 95.7828 229.434 93.4182 226.978C91.0536 224.523 87.8568 223.153 84.531 223.17C81.2053 223.188 78.023 224.591 75.6842 227.071C73.3455 229.552 72.0419 232.906 72.0601 236.396C72.0784 239.886 73.4171 243.226 75.7817 245.682C78.1463 248.138 81.3431 249.507 84.6688 249.49Z" fill="#B0B8BA"/>
<path d="M130.04 231.09C129.727 231.577 129.59 232.173 129.63 232.88C130.01 239.76 130.057 246.673 129.77 253.62C129.757 254.033 129.54 254.223 129.12 254.19L125.25 253.88C125.093 253.867 124.946 253.795 124.84 253.678C124.734 253.561 124.677 253.408 124.68 253.25L124.74 218.89C124.741 218.753 124.783 218.619 124.861 218.505C124.939 218.392 125.049 218.304 125.177 218.254C125.304 218.203 125.444 218.192 125.579 218.222C125.713 218.251 125.835 218.32 125.93 218.42L147.17 241.45C147.228 241.515 147.305 241.561 147.39 241.581C147.475 241.601 147.564 241.595 147.645 241.564C147.727 241.532 147.796 241.477 147.846 241.405C147.895 241.333 147.921 241.247 147.92 241.16L147.73 219.3C147.723 218.727 148.003 218.44 148.57 218.44H152.33C152.541 218.44 152.742 218.523 152.892 218.671C153.042 218.819 153.127 219.02 153.13 219.23C153.277 230.53 153.3 241.78 153.2 252.98C153.2 253.5 153.083 253.887 152.85 254.14C152.543 254.473 152.233 254.473 151.92 254.14L130.54 231.05C130.507 231.015 130.467 230.987 130.422 230.97C130.377 230.952 130.328 230.945 130.28 230.949C130.232 230.953 130.186 230.968 130.144 230.992C130.102 231.017 130.067 231.05 130.04 231.09Z" fill="#B0B8BA"/>
<path d="M350.06 252.84L364.04 219.85C364.8 218.057 365.567 218.053 366.34 219.84L380.95 253.46C381.057 253.713 380.977 253.847 380.71 253.86L375.48 254.2C375.346 254.209 375.213 254.172 375.101 254.096C374.988 254.02 374.904 253.909 374.86 253.78L373.35 249.36C373.297 249.195 373.189 249.054 373.044 248.957C372.899 248.861 372.725 248.816 372.55 248.83C368.59 249.103 364.677 249.153 360.81 248.98C357.66 248.85 355.81 249.96 355.65 253.19C355.64 253.385 355.558 253.569 355.419 253.706C355.28 253.843 355.095 253.923 354.9 253.93L350.94 254.1C350.787 254.107 350.635 254.075 350.497 254.007C350.36 253.939 350.241 253.838 350.154 253.712C350.066 253.586 350.011 253.44 349.995 253.288C349.979 253.136 350.001 252.981 350.06 252.84ZM359.13 243.88C359.109 243.932 359.1 243.989 359.106 244.045C359.112 244.101 359.131 244.155 359.163 244.201C359.195 244.248 359.238 244.286 359.288 244.312C359.338 244.338 359.394 244.351 359.45 244.35L370.65 244.33C370.706 244.329 370.76 244.315 370.809 244.288C370.858 244.262 370.899 244.224 370.93 244.177C370.96 244.131 370.979 244.078 370.984 244.022C370.99 243.967 370.981 243.911 370.96 243.86L365.34 230.17C365.315 230.107 365.271 230.054 365.215 230.016C365.159 229.978 365.093 229.958 365.025 229.958C364.957 229.958 364.891 229.978 364.835 230.016C364.779 230.054 364.736 230.107 364.71 230.17L359.13 243.88Z" fill="#B0B8BA"/>
<path d="M587.72 249.5C587.644 249.328 587.519 249.183 587.36 249.081C587.202 248.98 587.018 248.927 586.83 248.93L573.08 249.14C572.7 249.147 572.37 249.28 572.09 249.54C570.943 250.587 570.227 251.9 569.94 253.48C569.903 253.671 569.799 253.842 569.645 253.96C569.492 254.078 569.302 254.135 569.11 254.12L565.11 253.78C564.55 253.733 564.377 253.45 564.59 252.93L579.11 218.6C579.157 218.488 579.235 218.392 579.336 218.324C579.437 218.257 579.555 218.22 579.677 218.219C579.798 218.218 579.917 218.252 580.019 218.318C580.121 218.384 580.201 218.479 580.25 218.59L595.37 253.24C595.603 253.773 595.43 254.04 594.85 254.04H590.3C589.92 254.04 589.65 253.867 589.49 253.52L587.72 249.5ZM574.12 243.54C574.086 243.629 574.074 243.725 574.086 243.82C574.097 243.915 574.131 244.005 574.185 244.084C574.239 244.163 574.312 244.227 574.396 244.272C574.48 244.316 574.574 244.34 574.67 244.34L584.86 244.26C584.955 244.26 585.049 244.236 585.134 244.192C585.218 244.147 585.291 244.083 585.345 244.004C585.399 243.925 585.433 243.835 585.444 243.74C585.456 243.645 585.444 243.549 585.41 243.46L580.22 230.11C580.176 229.999 580.1 229.905 580.001 229.838C579.902 229.772 579.785 229.737 579.667 229.738C579.548 229.739 579.432 229.776 579.334 229.845C579.237 229.913 579.162 230.009 579.12 230.12L574.12 243.54Z" fill="#B0B8BA"/>
<path d="M678.74 231.61C677.86 230.643 677.417 230.813 677.41 232.12L677.38 253.38C677.379 253.464 677.361 253.547 677.328 253.624C677.295 253.701 677.248 253.771 677.188 253.83C677.129 253.888 677.059 253.934 676.982 253.965C676.905 253.996 676.823 254.011 676.74 254.01L672.8 253.98C672.353 253.98 672.13 253.757 672.13 253.31C672.103 242.483 672.1 231.673 672.12 220.88C672.12 220.24 672.183 219.713 672.31 219.3C672.356 219.141 672.443 218.998 672.563 218.884C672.683 218.77 672.831 218.69 672.992 218.652C673.153 218.615 673.321 218.62 673.479 218.669C673.636 218.718 673.779 218.808 673.89 218.93L694.68 241.47C695.14 241.963 695.38 241.873 695.4 241.2C695.607 234.627 695.617 228.14 695.43 221.74C695.36 219.34 696.14 217.59 698.87 218.18C699.177 218.247 699.423 218.407 699.61 218.66C700.157 219.433 700.44 220.18 700.46 220.9C700.773 231.947 700.837 242.843 700.65 253.59C700.646 253.753 700.594 253.911 700.5 254.045C700.406 254.178 700.274 254.28 700.122 254.338C699.969 254.396 699.803 254.407 699.644 254.37C699.485 254.333 699.341 254.25 699.23 254.13L678.74 231.61Z" fill="#B0B8BA"/>
<path d="M810.659 234.74C810.869 237.139 810.598 239.557 809.861 241.855C809.124 244.153 807.936 246.286 806.365 248.133C804.794 249.98 802.87 251.505 800.704 252.619C798.537 253.734 796.17 254.417 793.738 254.63C791.306 254.843 788.857 254.581 786.53 253.859C784.202 253.138 782.043 251.971 780.175 250.425C778.307 248.879 776.767 246.984 775.642 244.849C774.517 242.713 773.831 240.379 773.621 237.98C773.411 235.581 773.682 233.163 774.419 230.865C775.155 228.567 776.343 226.434 777.914 224.587C779.486 222.74 781.41 221.215 783.576 220.101C785.743 218.986 788.11 218.303 790.542 218.09C792.973 217.877 795.423 218.139 797.75 218.86C800.077 219.582 802.237 220.749 804.105 222.295C805.973 223.841 807.513 225.736 808.638 227.871C809.762 230.007 810.449 232.341 810.659 234.74ZM792.618 249.475C794.264 249.429 795.884 249.043 797.387 248.339C798.889 247.635 800.244 246.626 801.374 245.371C802.503 244.116 803.386 242.639 803.972 241.025C804.557 239.41 804.833 237.689 804.785 235.96C804.737 234.231 804.365 232.528 803.69 230.949C803.016 229.369 802.052 227.943 800.854 226.753C799.655 225.563 798.246 224.632 796.707 224.013C795.168 223.394 793.528 223.099 791.882 223.145C790.236 223.191 788.616 223.577 787.113 224.281C785.611 224.985 784.256 225.994 783.126 227.249C781.996 228.504 781.114 229.981 780.528 231.595C779.943 233.21 779.667 234.931 779.715 236.66C779.763 238.389 780.135 240.092 780.81 241.671C781.484 243.251 782.448 244.677 783.646 245.867C784.844 247.056 786.253 247.988 787.793 248.607C789.332 249.226 790.971 249.521 792.618 249.475Z" fill="#B0B8BA"/>
<path d="M870.3 252.9L884.74 219.08C885.273 217.833 885.81 217.833 886.35 219.08L901.23 253.46C901.269 253.546 901.284 253.64 901.274 253.733C901.264 253.827 901.23 253.916 901.175 253.993C901.119 254.07 901.044 254.131 900.958 254.171C900.871 254.211 900.775 254.228 900.68 254.22L895.79 253.8C895.357 253.76 895.063 253.537 894.91 253.13L893.47 249.4C893.412 249.245 893.308 249.111 893.172 249.018C893.035 248.925 892.874 248.876 892.71 248.88L878.19 249.14C878.019 249.143 877.854 249.193 877.712 249.285C877.57 249.378 877.459 249.507 877.39 249.66L875.8 253.14C875.68 253.393 875.493 253.57 875.24 253.67C873.793 254.263 872.297 254.33 870.75 253.87C870.654 253.842 870.565 253.793 870.488 253.728C870.412 253.662 870.351 253.581 870.308 253.489C870.266 253.398 870.243 253.298 870.242 253.196C870.24 253.095 870.26 252.994 870.3 252.9ZM879.52 243.93C879.502 243.975 879.496 244.023 879.501 244.071C879.506 244.119 879.522 244.165 879.549 244.205C879.575 244.245 879.611 244.279 879.653 244.302C879.695 244.326 879.742 244.339 879.79 244.34L891.12 244.32C891.169 244.32 891.217 244.308 891.261 244.286C891.304 244.263 891.341 244.23 891.369 244.189C891.396 244.149 891.414 244.102 891.419 244.054C891.425 244.005 891.418 243.956 891.4 243.91L885.71 229.98C885.687 229.926 885.648 229.881 885.599 229.849C885.551 229.817 885.493 229.8 885.435 229.8C885.377 229.8 885.32 229.817 885.271 229.849C885.222 229.881 885.183 229.926 885.16 229.98L879.52 243.93Z" fill="#B0B8BA"/>
<path d="M932.62 223.65C920.36 227.33 920.23 245 932.29 249.01C935.457 250.057 938.557 249.803 941.59 248.25C942.417 247.823 944.023 246.473 946.41 244.2C946.743 243.887 947.073 243.89 947.4 244.21L950.09 246.83C950.377 247.11 950.4 247.407 950.16 247.72C947.22 251.587 943.59 253.793 939.27 254.34C925.82 256.04 916.28 246.82 917.67 233.7C919.27 218.52 937.46 213.39 948.45 222.91C949.717 224.004 949.657 225.25 948.27 226.65C947.523 227.397 946.787 227.743 946.06 227.69C945.627 227.663 945.013 227.293 944.22 226.58C940.673 223.373 936.807 222.397 932.62 223.65Z" fill="#B0B8BA"/>
<path d="M1138.31 245.24C1144.63 255.26 1158.29 245.15 1148.02 239.91C1142.03 236.86 1134.33 234.67 1135.1 226.03C1135.39 222.75 1137.17 220.403 1140.43 218.99C1145.69 216.71 1149.38 218.54 1153.95 221.32C1155.09 222.02 1155.24 222.987 1154.4 224.22C1153.82 225.08 1152.88 225.78 1151.59 226.32C1151.26 226.46 1150.97 226.39 1150.74 226.11C1148.11 222.97 1143.38 221.49 1141.13 225.62C1140.02 227.64 1141.41 230.3 1143.21 231.14C1149.95 234.29 1159.28 237.3 1157.24 246.89C1156.33 251.19 1153.4 253.727 1148.45 254.5C1142.78 255.387 1137.77 253.553 1133.41 249C1133.21 248.795 1133.07 248.543 1133 248.269C1132.92 247.995 1132.91 247.706 1132.98 247.429C1133.04 247.152 1133.18 246.895 1133.37 246.682C1133.55 246.47 1133.79 246.307 1134.06 246.21L1137.53 244.97C1137.86 244.85 1138.12 244.94 1138.31 245.24Z" fill="#B0B8BA"/>
<path d="M1246.85 253.94C1230.9 249.94 1228.7 226.89 1243.77 219.89C1250.95 216.56 1260.52 217.4 1265.65 224.21C1265.87 224.51 1265.9 224.827 1265.73 225.16C1264.98 226.64 1263.8 227.53 1262.19 227.83C1261.82 227.897 1261.49 227.797 1261.22 227.53C1257.19 223.477 1252.79 222.28 1248.02 223.94C1236.92 227.82 1236.59 244.92 1248.02 248.7C1253.21 250.42 1257.9 249.057 1262.07 244.61C1262.2 244.469 1262.37 244.366 1262.56 244.313C1262.75 244.26 1262.94 244.259 1263.13 244.31C1264.62 244.717 1265.68 245.62 1266.33 247.02C1266.4 247.167 1266.42 247.33 1266.4 247.489C1266.38 247.648 1266.31 247.797 1266.21 247.92C1261.2 253.913 1254.74 255.92 1246.85 253.94Z" fill="#B0B8BA"/>
<path d="M1372.5 248.97L1387.72 249.89C1388.17 249.917 1388.38 250.157 1388.37 250.61L1388.3 252.72C1388.28 253.467 1387.9 253.844 1387.15 253.85L1367.56 254.07C1367.39 254.072 1367.21 254.039 1367.05 253.974C1366.89 253.908 1366.75 253.812 1366.62 253.691C1366.5 253.569 1366.4 253.424 1366.33 253.265C1366.27 253.105 1366.23 252.934 1366.23 252.76C1366.14 241.94 1365.66 230.23 1366.81 219.25C1366.83 219.097 1366.88 218.951 1366.98 218.827C1367.07 218.704 1367.2 218.608 1367.34 218.55L1368.57 218.07C1368.88 217.947 1369.22 217.902 1369.55 217.938C1369.89 217.974 1370.21 218.091 1370.49 218.277C1370.77 218.464 1371 218.716 1371.16 219.01C1371.32 219.305 1371.4 219.635 1371.41 219.97L1371.92 248.37C1371.92 248.525 1371.98 248.673 1372.09 248.785C1372.2 248.896 1372.35 248.963 1372.5 248.97Z" fill="#B0B8BA"/>
<path d="M176.21 219.5C176.209 219.365 176.234 219.232 176.285 219.107C176.335 218.982 176.41 218.868 176.505 218.772C176.6 218.676 176.713 218.6 176.837 218.549C176.962 218.497 177.095 218.47 177.23 218.47L187.33 218.46C192.102 218.452 196.682 220.296 200.063 223.587C203.444 226.878 205.35 231.346 205.36 236.01V236.53C205.365 238.841 204.904 241.13 204.004 243.267C203.104 245.403 201.781 247.346 200.113 248.983C198.444 250.62 196.461 251.92 194.278 252.808C192.095 253.697 189.755 254.156 187.39 254.16L177.29 254.17C177.021 254.17 176.763 254.064 176.572 253.875C176.381 253.686 176.273 253.429 176.27 253.16L176.21 219.5ZM181.99 224.56L182.03 248.23C182.03 248.477 182.128 248.713 182.302 248.888C182.477 249.062 182.713 249.16 182.96 249.16H186.96C188.572 249.157 190.168 248.848 191.656 248.249C193.145 247.651 194.496 246.775 195.634 245.671C196.771 244.568 197.673 243.259 198.286 241.819C198.9 240.379 199.214 238.837 199.21 237.28V235.44C199.202 232.299 197.903 229.289 195.599 227.073C193.294 224.856 190.173 223.614 186.92 223.62H182.92C182.797 223.62 182.675 223.644 182.562 223.692C182.448 223.739 182.345 223.808 182.259 223.896C182.172 223.983 182.104 224.087 182.058 224.201C182.012 224.315 181.989 224.437 181.99 224.56Z" fill="#B0B8BA"/>
<path d="M316.11 246.49L316.48 253.68C316.507 254.153 316.283 254.38 315.81 254.36L311.33 254.18C311.041 254.17 310.767 254.047 310.567 253.837C310.368 253.628 310.257 253.349 310.26 253.06L310.43 219.19C310.433 219.017 310.502 218.851 310.624 218.73C310.746 218.608 310.909 218.54 311.08 218.54C316.34 218.53 323.07 218.06 327.41 220C333.45 222.7 335.42 228.95 334.32 235.18C332.7 244.38 325.1 245.27 316.73 245.8C316.557 245.81 316.394 245.888 316.278 246.018C316.162 246.147 316.102 246.316 316.11 246.49ZM316.02 224.38L316.16 239.84C316.161 239.973 316.189 240.104 316.241 240.226C316.293 240.348 316.368 240.458 316.463 240.551C316.558 240.644 316.67 240.717 316.793 240.767C316.916 240.816 317.047 240.841 317.18 240.84L320.24 240.81C322.528 240.788 324.715 239.9 326.318 238.342C327.921 236.784 328.811 234.682 328.79 232.5V231.48C328.78 230.399 328.547 229.33 328.104 228.336C327.66 227.341 327.016 226.44 326.207 225.683C325.398 224.926 324.441 224.329 323.39 223.925C322.338 223.521 321.214 223.319 320.08 223.33L317.02 223.36C316.887 223.361 316.756 223.389 316.634 223.441C316.512 223.493 316.402 223.568 316.309 223.663C316.216 223.758 316.143 223.87 316.093 223.993C316.044 224.116 316.019 224.247 316.02 224.38Z" fill="#B0B8BA"/>
<path d="M407.45 245.96L407.36 253.47C407.36 253.77 407.207 253.93 406.9 253.95L402.55 254.16C402.416 254.167 402.282 254.146 402.156 254.1C402.03 254.053 401.915 253.981 401.817 253.888C401.72 253.796 401.643 253.684 401.59 253.561C401.537 253.437 401.51 253.304 401.51 253.17L401.55 219.14C401.55 218.72 401.763 218.5 402.19 218.48C411.63 217.97 423.98 217.48 425.79 229.81C426.65 235.69 424.7 239.987 419.94 242.7C419.829 242.763 419.732 242.847 419.656 242.949C419.579 243.051 419.524 243.167 419.494 243.291C419.464 243.414 419.459 243.543 419.481 243.668C419.503 243.794 419.55 243.914 419.62 244.02L425.5 253C425.581 253.125 425.626 253.27 425.63 253.42C425.634 253.569 425.597 253.716 425.522 253.845C425.448 253.975 425.339 254.081 425.208 254.152C425.077 254.224 424.929 254.258 424.78 254.25L419.89 254.05C419.703 254.041 419.522 253.986 419.363 253.89C419.204 253.794 419.072 253.66 418.98 253.5C416.45 249.03 414.63 243.27 408.04 245.18C407.647 245.293 407.45 245.553 407.45 245.96ZM407.28 224.21L407.46 239.41C407.461 239.522 407.485 239.632 407.529 239.735C407.572 239.837 407.636 239.93 407.716 240.008C407.796 240.086 407.89 240.148 407.994 240.189C408.098 240.231 408.208 240.251 408.32 240.25L411.67 240.21C412.792 240.197 413.901 239.984 414.934 239.585C415.966 239.185 416.901 238.606 417.686 237.88C418.471 237.155 419.09 236.298 419.508 235.357C419.925 234.417 420.133 233.412 420.12 232.4L420.1 230.9C420.074 228.859 419.15 226.914 417.532 225.491C415.913 224.068 413.733 223.283 411.47 223.31L408.12 223.35C408.008 223.351 407.898 223.375 407.795 223.419C407.693 223.463 407.6 223.526 407.522 223.606C407.444 223.686 407.382 223.78 407.341 223.884C407.299 223.988 407.279 224.098 407.28 224.21Z" fill="#B0B8BA"/>
<path d="M530.21 249.08L544.93 249.37C545.148 249.375 545.356 249.466 545.507 249.624C545.659 249.781 545.743 249.992 545.74 250.21L545.73 253.16C545.727 253.378 545.639 253.587 545.483 253.74C545.328 253.894 545.118 253.98 544.9 253.98L524.45 254.08C524.339 254.081 524.229 254.061 524.127 254.019C524.024 253.977 523.931 253.915 523.853 253.837C523.775 253.759 523.713 253.666 523.671 253.563C523.629 253.46 523.609 253.351 523.61 253.24L523.73 219.4C523.732 219.188 523.815 218.986 523.962 218.833C524.109 218.681 524.309 218.59 524.52 218.58L528.5 218.42C528.611 218.416 528.721 218.434 528.824 218.473C528.928 218.513 529.023 218.572 529.103 218.649C529.183 218.725 529.247 218.817 529.291 218.918C529.335 219.02 529.359 219.129 529.36 219.24L529.4 248.25C529.4 248.467 529.485 248.675 529.636 248.83C529.787 248.985 529.993 249.075 530.21 249.08Z" fill="#B0B8BA"/>
<path d="M646.336 218.367L645.376 218.374C644.404 218.381 643.621 219.174 643.628 220.146L643.852 252.265C643.859 253.237 644.652 254.02 645.624 254.013L646.584 254.006C647.556 254 648.339 253.206 648.332 252.234L648.108 220.115C648.101 219.143 647.308 218.36 646.336 218.367Z" fill="#B0B8BA"/>
<path d="M728.92 231.37L729.11 253.31C729.11 253.763 728.88 254.003 728.42 254.03L724.5 254.23C723.993 254.257 723.74 254.02 723.74 253.52C723.693 242.14 723.73 230.777 723.85 219.43C723.857 219.197 723.907 219 724 218.84C724.147 218.567 724.3 218.427 724.46 218.42C724.598 218.413 724.782 218.482 724.992 218.617C725.202 218.753 725.429 218.951 725.65 219.19L746.69 241.74C746.728 241.784 746.78 241.814 746.836 241.828C746.893 241.841 746.952 241.836 747.006 241.814C747.06 241.792 747.106 241.754 747.137 241.705C747.168 241.656 747.183 241.598 747.18 241.54L746.94 219.18C746.933 218.66 747.187 218.41 747.7 218.43L751.63 218.54C752.083 218.553 752.313 218.79 752.32 219.25L752.39 253.45C752.391 253.614 752.343 253.774 752.25 253.91C752.158 254.046 752.027 254.151 751.874 254.21C751.722 254.27 751.554 254.282 751.395 254.244C751.235 254.207 751.09 254.121 750.98 254L729.75 231.04C729.684 230.97 729.599 230.921 729.505 230.9C729.41 230.879 729.312 230.887 729.223 230.922C729.133 230.958 729.056 231.02 729.002 231.099C728.948 231.179 728.92 231.274 728.92 231.37Z" fill="#B0B8BA"/>
<path d="M843.31 241.55L852.41 219.23C852.583 218.81 852.893 218.584 853.34 218.55L857.14 218.3C857.266 218.291 857.392 218.314 857.507 218.367C857.621 218.42 857.721 218.501 857.795 218.604C857.869 218.706 857.916 218.825 857.931 218.951C857.946 219.076 857.928 219.203 857.88 219.32C853.767 229.594 849.46 239.724 844.96 249.71C844.4 250.96 844.3 252.57 843.78 253.74C843.7 253.919 843.569 254.071 843.405 254.177C843.24 254.284 843.049 254.341 842.854 254.341C842.659 254.341 842.469 254.284 842.306 254.177C842.144 254.071 842.017 253.919 841.94 253.74L826.99 219.39C826.857 219.077 826.947 218.854 827.26 218.72C829.127 217.927 830.747 217.967 832.12 218.84C832.987 219.387 833.787 220.56 834.52 222.36C837.087 228.687 839.69 235.084 842.33 241.55C842.657 242.35 842.983 242.35 843.31 241.55Z" fill="#B0B8BA"/>
<path d="M976.15 218.44H972.85C972.215 218.44 971.7 218.955 971.7 219.59V253.05C971.7 253.685 972.215 254.2 972.85 254.2H976.15C976.785 254.2 977.3 253.685 977.3 253.05V219.59C977.3 218.955 976.785 218.44 976.15 218.44Z" fill="#B0B8BA"/>
<path d="M1291.36 218.454L1289.84 218.467C1288.82 218.476 1288 219.312 1288.01 220.333L1288.29 252.512C1288.3 253.534 1289.13 254.355 1290.16 254.346L1291.68 254.333C1292.7 254.324 1293.52 253.488 1293.51 252.467L1293.23 220.288C1293.22 219.266 1292.39 218.445 1291.36 218.454Z" fill="#B0B8BA"/>
<path d="M1321.55 249.91L1320.21 253.19C1320.08 253.537 1319.83 253.737 1319.46 253.79L1315.92 254.35C1315.71 254.383 1315.49 254.358 1315.29 254.28C1315.1 254.201 1314.92 254.071 1314.79 253.903C1314.66 253.735 1314.58 253.535 1314.55 253.323C1314.52 253.112 1314.55 252.897 1314.63 252.7L1329.1 218.8C1329.16 218.668 1329.25 218.555 1329.37 218.475C1329.49 218.395 1329.63 218.352 1329.78 218.351C1329.92 218.35 1330.06 218.391 1330.18 218.469C1330.3 218.547 1330.39 218.658 1330.45 218.79L1345.42 253.14C1345.75 253.913 1345.5 254.28 1344.66 254.24L1339.88 254.01C1339.69 254.002 1339.5 253.919 1339.37 253.778C1339.23 253.636 1339.15 253.447 1339.15 253.25C1339.14 250.57 1337.99 249.213 1335.69 249.18C1331.22 249.12 1326.83 248.75 1322.39 249.27C1321.98 249.317 1321.7 249.53 1321.55 249.91ZM1323.93 243.94C1323.91 243.99 1323.9 244.044 1323.91 244.098C1323.92 244.152 1323.94 244.203 1323.97 244.247C1324 244.292 1324.04 244.328 1324.09 244.353C1324.13 244.378 1324.19 244.39 1324.24 244.39L1335.47 244.27C1335.52 244.269 1335.58 244.255 1335.62 244.229C1335.67 244.204 1335.71 244.167 1335.74 244.123C1335.77 244.079 1335.78 244.028 1335.79 243.975C1335.8 243.923 1335.79 243.869 1335.77 243.82L1330.01 230.16C1329.99 230.1 1329.94 230.048 1329.89 230.012C1329.83 229.975 1329.77 229.956 1329.7 229.956C1329.64 229.956 1329.58 229.975 1329.52 230.012C1329.47 230.048 1329.42 230.1 1329.4 230.16L1323.93 243.94Z" fill="#B0B8BA"/>
<path d="M30.05 224.37L30.09 236.64C30.09 236.898 30.1919 237.146 30.3735 237.33C30.5551 237.513 30.8018 237.617 31.06 237.62L44.38 237.71C44.6314 237.712 44.8723 237.811 45.0528 237.986C45.2334 238.161 45.3398 238.399 45.35 238.65L45.47 241.43C45.4754 241.56 45.4546 241.691 45.409 241.813C45.3634 241.935 45.2939 242.047 45.2045 242.142C45.1151 242.237 45.0076 242.313 44.8883 242.366C44.7691 242.419 44.6405 242.448 44.51 242.45L31.11 242.6C30.8536 242.603 30.6083 242.706 30.427 242.887C30.2457 243.068 30.1426 243.314 30.14 243.57L30.09 253.02C30.0887 253.149 30.0621 253.276 30.0116 253.394C29.9611 253.513 29.8879 253.62 29.7959 253.71C29.704 253.8 29.5952 253.871 29.4758 253.919C29.3564 253.967 29.2287 253.991 29.1 253.99L25.43 253.98C25.3013 253.979 25.1741 253.952 25.0557 253.902C24.9373 253.851 24.83 253.778 24.74 253.686C24.6499 253.594 24.5788 253.485 24.5308 253.366C24.4827 253.246 24.4587 253.119 24.46 252.99L24.75 219.55C24.7526 219.292 24.8571 219.045 25.0406 218.864C25.2241 218.682 25.4718 218.58 25.73 218.58L45.94 218.64C46.0749 218.641 46.2081 218.67 46.3314 218.725C46.4546 218.779 46.5652 218.859 46.6563 218.958C46.7473 219.058 46.8168 219.175 46.8605 219.303C46.9042 219.43 46.921 219.566 46.91 219.7L46.7 222.31C46.6802 222.552 46.571 222.779 46.3935 222.945C46.2161 223.112 45.9832 223.206 45.74 223.21L31.02 223.39C30.7618 223.393 30.5151 223.497 30.3335 223.681C30.1519 223.864 30.05 224.112 30.05 224.37Z" fill="#B0B8BA"/>
<path d="M1023.95 206.87L1020.05 214.28C1019.93 214.498 1019.77 214.687 1019.57 214.832C1019.37 214.978 1019.14 215.076 1018.9 215.12L1017.58 215.36C1017.3 215.409 1017.02 215.385 1016.75 215.291C1016.48 215.196 1016.25 215.034 1016.06 214.82C1015.88 214.606 1015.75 214.348 1015.7 214.071C1015.64 213.794 1015.66 213.508 1015.75 213.24L1018.18 205.97C1018.28 205.682 1018.45 205.426 1018.68 205.232C1018.92 205.038 1019.2 204.912 1019.5 204.87L1022.29 204.5C1022.59 204.461 1022.89 204.503 1023.16 204.623C1023.43 204.743 1023.67 204.936 1023.84 205.181C1024.01 205.425 1024.11 205.712 1024.13 206.01C1024.15 206.308 1024.09 206.605 1023.95 206.87Z" fill="#B0B8BA"/>
<path d="M219.5 175.33C202.78 172.31 201.57 152.27 201.55 139.11C201.47 94.3634 201.47 49.6167 201.55 4.87008C201.557 3.18342 201.63 1.83676 201.77 0.830089C201.797 0.615087 201.902 0.417229 202.066 0.273632C202.23 0.130034 202.441 0.0505449 202.66 0.0500752H216.4C216.648 0.0487597 216.893 0.0966894 217.122 0.191082C217.352 0.285474 217.56 0.424475 217.736 0.600109C217.911 0.775743 218.051 0.984545 218.146 1.2145C218.241 1.44446 218.29 1.69105 218.29 1.94009C218.197 47.1068 218.13 92.0834 218.09 136.87C218.09 141.397 218.48 145.887 219.26 150.34C221.25 161.65 234.61 161.11 241.94 156.12C242.086 156.021 242.253 155.955 242.428 155.927C242.603 155.9 242.782 155.911 242.953 155.961C243.124 156.01 243.282 156.097 243.416 156.214C243.55 156.332 243.657 156.477 243.73 156.64C246.34 162.58 248.71 170.52 240.48 173.54C233.687 176.033 226.693 176.63 219.5 175.33Z" fill="#486371"/>
<path d="M389.97 143.07C389.835 143.181 389.724 143.317 389.642 143.471C389.56 143.624 389.509 143.793 389.492 143.965C389.475 144.138 389.493 144.313 389.544 144.478C389.595 144.644 389.679 144.797 389.79 144.93C393.07 148.9 397.17 151.65 401.86 154.17C422.11 165.01 447.22 161.19 463.95 146.03C464.363 145.656 464.904 145.454 465.46 145.465C466.016 145.476 466.546 145.7 466.94 146.09C469.033 148.17 471.007 150.397 472.86 152.77C474.85 155.33 471.54 158.48 469.1 160.46C456.013 171.087 440.727 175.953 423.24 175.06C413.14 174.547 403.787 172.38 395.18 168.56C389.48 166.03 384.8 161.42 379.76 157.46C377.57 155.75 376.11 153.64 374.4 151.55C374.209 151.311 373.939 151.147 373.638 151.085C373.337 151.023 373.023 151.067 372.75 151.21C360.577 157.543 348.213 163.513 335.66 169.12C327.18 172.907 320.917 175.113 316.87 175.74C307.17 177.247 298.06 175.137 289.54 169.41C282.34 164.57 279.38 153.7 278.42 145.64C278.233 144.06 278.14 139.71 278.14 132.59C278.153 105.61 278.117 78.6967 278.03 51.8501C278.029 51.5357 277.959 51.2255 277.825 50.9409C277.692 50.6563 277.497 50.4043 277.255 50.2025C277.013 50.0006 276.73 49.8538 276.425 49.7722C276.12 49.6906 275.801 49.6762 275.49 49.7301C273.103 50.1567 270.73 50.1301 268.37 49.6501C268.117 49.5962 267.889 49.4593 267.724 49.2615C267.559 49.0637 267.466 48.8166 267.46 48.5601L267.13 34.9701C267.12 34.5452 267.271 34.1319 267.552 33.8117C267.834 33.4914 268.225 33.2875 268.65 33.2401L277.19 32.3401C277.473 32.3106 277.736 32.176 277.928 31.9621C278.12 31.7482 278.227 31.4698 278.23 31.1801L278.28 2.15006C278.283 1.63448 278.487 1.14044 278.85 0.773996C279.213 0.407552 279.705 0.197918 280.22 0.190073L294.24 7.0452e-05C294.335 -0.00125192 294.429 0.0160527 294.516 0.0510195C294.604 0.0859864 294.684 0.13792 294.752 0.203852C294.82 0.269783 294.874 0.348426 294.911 0.435282C294.949 0.522138 294.969 0.615507 294.97 0.710062C294.977 9.31673 295.007 17.9534 295.06 26.6201C295.073 28.4334 295.333 30.0367 295.84 31.4301C295.957 31.7562 296.171 32.0385 296.454 32.2388C296.736 32.4392 297.074 32.5478 297.42 32.5501L330.74 32.8101C332.1 32.8234 332.773 33.5067 332.76 34.8601L332.63 47.4601C332.622 48.1772 332.332 48.8624 331.824 49.3676C331.315 49.8728 330.627 50.1575 329.91 50.1601L296.33 50.3301C296.136 50.3301 295.944 50.3684 295.765 50.4429C295.586 50.5174 295.424 50.6266 295.287 50.7642C295.15 50.9017 295.042 51.0649 294.969 51.2445C294.896 51.424 294.859 51.6162 294.86 51.8101C294.96 81.7767 294.98 111.577 294.92 141.21C294.92 144.29 296.09 149.34 297.69 152C300.95 157.393 305.49 160.107 311.31 160.14C313.563 160.147 316.87 159.407 321.23 157.92C335.82 152.92 349.62 145.6 363.54 138.97C365.49 138.04 365.85 136.44 365.19 134.38C360.49 119.767 360.303 105.077 364.63 90.3101C367.88 79.2201 376.51 67.0501 386.5 60.4201C393.42 55.8267 400.863 52.5134 408.83 50.4801C415.02 48.9001 421.79 49.1401 428.32 49.2901C433.77 49.4201 440.55 51.4001 445.66 53.4301C456.693 57.8234 465.6 64.8301 472.38 74.4501C476.84 80.7801 480.76 91.1701 480.94 99.0601C480.943 99.2173 480.914 99.3732 480.853 99.5178C480.793 99.6625 480.704 99.7927 480.59 99.9001C479.643 100.787 478.583 101.497 477.41 102.03C457.21 111.137 437.137 120.513 417.19 130.16C411.96 132.7 404.62 135.66 398.52 138.9C396.15 140.16 392.42 141.1 389.97 143.07ZM448.17 71.2001C437.83 62.3901 419.44 62.3701 407.65 66.3101C396.55 70.0201 389.3 76.4601 383.73 86.6301C376.78 99.3301 377.12 112.59 379.48 126.87C379.673 128.043 380.133 128.843 380.86 129.27C381.18 129.463 381.507 129.477 381.84 129.31C395.287 122.757 408.793 116.323 422.36 110.01C433.24 104.94 446.94 97.6701 459.62 92.2301C460.96 91.6567 462.097 90.7934 463.03 89.6401C463.243 89.3734 463.263 89.0901 463.09 88.7901C459.057 82.0967 454.083 76.2334 448.17 71.2001Z" fill="#486371"/>
<path d="M968.28 0.180176C969.433 0.180176 970.007 0.75351 970 1.90018L969.99 31.1402C969.99 31.6123 970.178 32.065 970.511 32.3988C970.845 32.7326 971.298 32.9202 971.77 32.9202L1006.25 32.9802C1006.49 32.9827 1006.72 33.078 1006.89 33.246C1007.06 33.414 1007.15 33.6414 1007.16 33.8802L1007.43 49.3802C1007.44 50.2935 1007 50.6835 1006.1 50.5502C1005.27 50.4235 1004.23 50.3702 1003 50.3902C992.34 50.5635 981.867 50.5435 971.58 50.3302C971.371 50.3262 971.162 50.3641 970.968 50.4419C970.773 50.5196 970.596 50.6355 970.447 50.7828C970.298 50.93 970.18 51.1056 970.099 51.2993C970.019 51.4929 969.979 51.7006 969.98 51.9102C970.127 80.0902 970.13 108.21 969.99 136.27C969.963 141.01 970.3 144.544 971 146.87C971.82 149.63 974.86 157.26 977.95 158.5C985.12 161.39 991.97 159.59 998.82 156.97C999.676 156.645 1000.61 156.581 1001.5 156.785C1002.4 156.99 1003.21 157.454 1003.84 158.12L1011.41 166.11C1011.64 166.348 1011.8 166.636 1011.89 166.951C1011.98 167.265 1012 167.597 1011.93 167.918C1011.87 168.239 1011.73 168.54 1011.53 168.797C1011.32 169.053 1011.06 169.256 1010.76 169.39C1007.56 170.824 1004.28 172.147 1000.92 173.36C991.88 176.607 982.717 176.904 973.43 174.25C960.81 170.65 954.38 158.44 953.54 146.04C953.28 142.32 952.96 138.53 952.99 134.8C953.17 106.96 953.2 79.1502 953.08 51.3702C953.079 51.1614 953.036 50.9551 952.953 50.7635C952.87 50.5719 952.749 50.399 952.598 50.2552C952.447 50.1114 952.268 49.9996 952.072 49.9266C951.877 49.8535 951.669 49.8208 951.46 49.8302L944.54 50.1102C944.262 50.1223 943.984 50.0784 943.723 49.9811C943.463 49.8839 943.224 49.7353 943.021 49.5441C942.819 49.353 942.657 49.1231 942.545 48.8682C942.433 48.6133 942.374 48.3385 942.37 48.0602C942.32 44.8502 941.5 35.1502 943.4 32.7602C943.627 32.4802 943.92 32.3735 944.28 32.4402C947.087 32.9802 949.86 32.8768 952.6 32.1302C952.94 32.0368 953.107 31.8135 953.1 31.4602L953 2.79018C953 2.10061 953.273 1.4393 953.759 0.951706C954.244 0.464111 954.903 0.190186 955.59 0.190186L968.28 0.180176Z" fill="#486371"/>
<path d="M1062.13 28.5987C1068.93 27.9677 1073.95 22.1154 1073.34 15.5273C1072.73 8.93924 1066.72 4.11011 1059.91 4.74116C1053.11 5.37222 1048.09 11.2245 1048.7 17.8126C1049.31 24.4007 1055.32 29.2298 1062.13 28.5987Z" fill="#E1A93B"/>
<path d="M539.87 72.2802C547.91 56.7702 565.76 50.2402 582.22 49.9502C583.94 49.9202 585 51.2402 584.96 52.9802C584.88 56.6402 584.803 60.3702 584.73 64.1702C584.723 64.6269 584.54 65.0632 584.22 65.3889C583.9 65.7147 583.466 65.9049 583.01 65.9202C568.41 66.4502 554.67 69.8202 546.44 83.2102C540.8 92.3902 539.38 100.98 539.31 112.62C539.19 132.44 539.103 152.234 539.05 172C539.05 173.84 538.13 174.764 536.29 174.77L523.29 174.81C523.014 174.81 522.75 174.702 522.555 174.509C522.36 174.315 522.25 174.053 522.25 173.78V51.6502C522.25 51.2302 522.46 51.0235 522.88 51.0302L536.25 51.1502C536.771 51.1554 537.269 51.3646 537.637 51.733C538.006 52.1013 538.215 52.5993 538.22 53.1202L538.4 71.9202C538.42 74.0135 538.91 74.1335 539.87 72.2802Z" fill="#486371"/>
<path d="M638.3 71.7701C639.63 70.0401 640.78 67.7702 642.17 66.1402C654.66 51.4402 679.14 47.6702 696.94 51.1402C704.14 52.5535 710.73 55.4502 716.71 59.8302C729.49 69.2102 734.49 86.8602 734.45 102.37C734.383 126.297 734.313 150.143 734.24 173.91C734.24 174.073 734.208 174.234 734.144 174.384C734.081 174.534 733.989 174.67 733.872 174.784C733.756 174.897 733.618 174.987 733.466 175.046C733.315 175.106 733.153 175.134 732.99 175.13L719.74 174.81C719.164 174.797 718.616 174.56 718.213 174.149C717.81 173.738 717.582 173.186 717.58 172.61C717.507 150.277 717.48 128.197 717.5 106.37C717.52 84.7902 709.99 67.2902 685.51 65.6402C678.24 65.1502 669.84 65.5501 663.04 67.9301C653.413 71.3101 646.37 77.5102 641.91 86.5302C637.34 95.7602 637.42 104.75 637.23 117.47C636.957 135.81 636.897 154.08 637.05 172.28C637.056 172.956 636.797 173.608 636.328 174.097C635.86 174.586 635.218 174.874 634.54 174.9L623.68 175.32C623.238 175.336 622.798 175.263 622.386 175.106C621.973 174.948 621.597 174.709 621.279 174.402C620.961 174.096 620.709 173.729 620.538 173.323C620.366 172.917 620.278 172.481 620.28 172.04L620.55 52.4901C620.55 52.284 620.591 52.08 620.671 51.89C620.751 51.6999 620.867 51.5277 621.015 51.3834C621.162 51.2391 621.336 51.1255 621.528 51.0494C621.719 50.9733 621.924 50.9362 622.13 50.9402L635.02 51.2101C635.332 51.2176 635.628 51.3441 635.85 51.5635C636.071 51.7829 636.2 52.0787 636.21 52.3902L636.93 71.3402C636.983 72.7535 637.44 72.8968 638.3 71.7701Z" fill="#486371"/>
<path d="M1165.36 154.07C1166.05 151.88 1166.47 149.62 1167.26 147.61C1171.67 136.27 1175.96 124.88 1180.12 113.44C1181.46 109.77 1183.29 106.02 1184.53 102.64C1190.38 86.6335 1196.34 70.6701 1202.41 54.7501C1203.35 52.2801 1203.55 51.3401 1206.47 50.9101C1210.46 50.3235 1214.31 50.3535 1218.02 51.0001C1218.32 51.0526 1218.6 51.171 1218.85 51.3466C1219.09 51.5222 1219.3 51.7506 1219.44 52.0152C1219.59 52.2797 1219.68 52.5737 1219.69 52.8756C1219.71 53.1775 1219.66 53.4797 1219.55 53.7601C1211.82 72.9101 1204.71 92.3001 1196.93 111.45C1194.34 117.81 1191.95 124.85 1189.65 130.67C1185.12 142.123 1180.75 153.63 1176.52 165.19C1175.44 168.14 1174.03 170.8 1172.65 173.45C1172.43 173.87 1172.11 174.222 1171.7 174.468C1171.3 174.715 1170.83 174.847 1170.36 174.85L1155.89 174.94C1155.46 174.942 1155.04 174.795 1154.7 174.523C1154.37 174.252 1154.14 173.873 1154.05 173.45C1153.51 170.82 1153 168.23 1151.96 165.71C1143.6 145.59 1138.35 130.78 1131.79 114.24C1126.31 100.44 1121.7 87.0801 1116.07 73.7101C1113.38 67.3201 1110.84 60.0401 1107.89 53.1801C1107.76 52.8721 1107.71 52.5352 1107.75 52.2023C1107.79 51.8695 1107.91 51.5523 1108.11 51.2819C1108.3 51.0115 1108.57 50.7972 1108.87 50.6602C1109.18 50.5231 1109.52 50.468 1109.85 50.5001C1113.58 50.8668 1117.42 51.0568 1121.36 51.0701C1124.15 51.0801 1125.43 52.3401 1126.33 54.7601C1138.43 87.2735 1150.51 119.793 1162.57 152.32C1162.98 153.433 1163.59 154.163 1164.4 154.51C1164.88 154.71 1165.2 154.563 1165.36 154.07Z" fill="#486371"/>
<path d="M1069.51 53.74L1069.55 171.42C1069.55 172.217 1069.25 172.986 1068.71 173.571C1068.17 174.157 1067.42 174.517 1066.63 174.58L1055.91 175.41C1055.47 175.445 1055.04 175.388 1054.62 175.245C1054.21 175.102 1053.83 174.875 1053.51 174.578C1053.19 174.281 1052.93 173.921 1052.76 173.521C1052.58 173.12 1052.49 172.687 1052.49 172.25L1052.51 54.63C1052.51 53.8342 1052.81 53.0674 1053.35 52.4819C1053.89 51.8965 1054.63 51.5353 1055.42 51.47L1066.08 50.58C1066.52 50.5441 1066.96 50.5991 1067.37 50.7416C1067.79 50.8841 1068.17 51.111 1068.49 51.4079C1068.81 51.7049 1069.07 52.0654 1069.24 52.4668C1069.42 52.8682 1069.51 53.3017 1069.51 53.74Z" fill="#486371"/>
<path d="M1378.36 89.8504C1378.38 87.5215 1380.28 85.643 1382.6 85.6547L1414.24 85.8153C1416.24 85.8254 1417.94 87.2473 1418.31 89.2153L1425.81 128.622C1426.24 130.907 1424.75 133.125 1422.48 133.576L1413.53 135.351C1411.26 135.802 1409.06 134.316 1408.63 132.031C1408.24 129.994 1407.7 124.96 1405.43 124.467C1403.78 124.107 1401.48 127.087 1400.36 128.713C1366.45 177.993 1319.68 198.19 1281.77 181.632C1270.1 176.531 1256.49 165.708 1248.15 150.305C1239.59 134.499 1236.74 114.101 1246.76 91.1717C1266.54 45.8924 1323.01 38.1427 1354.7 67.6697C1356.39 69.2478 1356.3 71.9291 1354.61 73.5353L1347.14 80.6475C1345.46 82.2537 1342.81 82.1691 1341.08 80.6364C1318.05 60.2819 1277.91 66.3584 1263.81 98.6232C1256.26 115.92 1258.56 130.233 1264.53 141.26C1270.72 152.688 1281.02 160.819 1289.29 164.43C1316.97 176.521 1358.86 161.883 1390.65 109.491C1391.54 108.026 1392.9 105.785 1392.08 104.545C1391.37 103.462 1388.65 103.279 1387.16 103.272L1382.4 103.248C1380.08 103.236 1378.23 101.338 1378.25 99.0094L1378.36 89.8504Z" fill="#E1A93B"/>
<path d="M887.959 89.8504C887.985 87.5215 889.884 85.643 892.199 85.6547L923.846 85.8153C925.841 85.8254 927.543 87.2473 927.918 89.2153L935.413 128.622C935.848 130.907 934.357 133.125 932.082 133.576L923.137 135.351C920.862 135.802 918.666 134.316 918.232 132.031C917.844 129.994 917.299 124.96 915.038 124.467C913.386 124.107 911.081 127.087 909.962 128.713C876.054 177.993 829.28 198.19 791.377 181.632C779.698 176.531 766.092 165.708 757.751 150.305C749.192 134.499 746.343 114.101 756.359 91.1717C776.139 45.8924 832.616 38.1427 864.299 67.6697C865.992 69.2478 865.902 71.9291 864.216 73.5353L856.747 80.6475C855.06 82.2537 852.415 82.1691 850.681 80.6364C827.652 60.2819 787.511 66.3584 773.417 98.6232C765.861 115.92 768.162 130.233 774.133 141.26C780.322 152.688 790.625 160.819 798.891 164.43C826.57 176.521 868.463 161.883 900.253 109.491C901.142 108.026 902.499 105.785 901.685 104.545C900.974 103.462 898.25 103.279 896.763 103.272L892.003 103.248C889.687 103.236 887.831 101.338 887.857 99.0094L887.959 89.8504Z" fill="#486371"/>
<path d="M137.959 89.8504C137.985 87.5215 139.884 85.643 142.199 85.6547L173.846 85.8153C175.841 85.8254 177.543 87.2473 177.918 89.2153L185.413 128.622C185.848 130.907 184.357 133.125 182.082 133.576L173.137 135.351C170.862 135.802 168.666 134.316 168.232 132.031C167.844 129.994 167.299 124.96 165.038 124.467C163.386 124.107 161.081 127.087 159.962 128.713C126.054 177.993 79.2803 198.19 41.3768 181.632C29.6983 176.531 16.0924 165.708 7.75113 150.305C-0.807705 134.499 -3.6571 114.101 6.35928 91.1717C26.1386 45.8924 82.6159 38.1427 114.299 67.6697C115.992 69.2478 115.902 71.9291 114.216 73.5353L106.747 80.6475C105.06 82.2537 102.415 82.1691 100.681 80.6364C77.6524 60.2819 37.5115 66.3584 23.4173 98.6232C15.8614 115.92 18.1624 130.233 24.1334 141.26C30.3219 152.688 40.625 160.819 48.8913 164.43C76.5697 176.521 118.463 161.883 150.253 109.491C151.142 108.026 152.499 105.785 151.685 104.545C150.974 103.462 148.25 103.279 146.763 103.272L142.003 103.248C139.687 103.236 137.831 101.338 137.857 99.0094L137.959 89.8504Z" fill="#486371"/>
</svg>
