<svg width="845" height="111" viewBox="0 0 845 111" fill="none" xmlns="http://www.w3.org/2000/svg">
<path d="M130.061 103.889C120.154 102.1 119.437 90.2253 119.425 82.4276C119.378 55.9137 119.378 29.3997 119.425 2.88582C119.429 1.88641 119.473 1.08847 119.556 0.491986C119.571 0.36459 119.634 0.247352 119.731 0.162266C119.828 0.0771791 119.953 0.0300791 120.083 0.0298008H128.224C128.371 0.0290213 128.517 0.0574213 128.652 0.113352C128.788 0.169283 128.912 0.251645 129.016 0.355714C129.12 0.459783 129.202 0.583506 129.259 0.719764C129.315 0.856022 129.344 1.00213 129.344 1.1497C129.289 27.9125 129.249 54.5627 129.226 81.1003C129.226 83.7825 129.457 86.443 129.919 89.0817C131.098 95.7833 139.014 95.4633 143.358 92.5066C143.444 92.4477 143.543 92.4087 143.647 92.3924C143.751 92.3761 143.857 92.3828 143.958 92.4122C144.059 92.4416 144.153 92.4929 144.232 92.5624C144.312 92.632 144.375 92.7181 144.418 92.8147C145.965 96.3343 147.369 101.039 142.493 102.829C138.467 104.306 134.323 104.659 130.061 103.889Z" fill="#486371"/>
<path d="M231.07 84.7739C230.991 84.8395 230.924 84.9202 230.876 85.0112C230.827 85.1023 230.797 85.2019 230.787 85.3044C230.777 85.4069 230.788 85.5102 230.818 85.6083C230.848 85.7064 230.898 85.7974 230.964 85.876C232.907 88.2283 235.337 89.8578 238.116 91.351C250.114 97.7741 264.993 95.5106 274.906 86.5278C275.151 86.3061 275.471 86.1862 275.801 86.1928C276.13 86.1994 276.444 86.332 276.678 86.5633C277.918 87.7958 279.087 89.1152 280.186 90.5214C281.365 92.0383 279.403 93.9048 277.958 95.078C270.203 101.375 261.145 104.258 250.784 103.729C244.799 103.425 239.257 102.141 234.158 99.8776C230.78 98.3785 228.007 95.6469 225.021 93.3004C223.723 92.2872 222.858 91.037 221.845 89.7986C221.731 89.657 221.572 89.5595 221.393 89.5227C221.215 89.486 221.029 89.5123 220.867 89.5971C213.654 93.3498 206.328 96.8872 198.89 100.209C193.865 102.453 190.154 103.761 187.756 104.132C182.009 105.025 176.611 103.774 171.562 100.381C167.296 97.5134 165.542 91.0725 164.973 86.2967C164.863 85.3605 164.807 82.783 164.807 78.5641C164.815 62.5776 164.794 46.6305 164.742 30.7229C164.742 30.5367 164.7 30.3528 164.621 30.1842C164.542 30.0156 164.426 29.8663 164.283 29.7467C164.14 29.6271 163.972 29.54 163.791 29.4917C163.611 29.4433 163.422 29.4348 163.237 29.4668C161.823 29.7196 160.417 29.7038 159.018 29.4193C158.868 29.3874 158.734 29.3063 158.636 29.1891C158.538 29.0719 158.483 28.9255 158.479 28.7735L158.284 20.721C158.278 20.4692 158.367 20.2243 158.534 20.0346C158.7 19.8448 158.932 19.724 159.184 19.6959L164.244 19.1626C164.412 19.1451 164.568 19.0654 164.682 18.9386C164.795 18.8119 164.859 18.6469 164.861 18.4752L164.89 1.27399C164.892 0.968483 165.013 0.67575 165.228 0.458619C165.443 0.241488 165.734 0.117273 166.04 0.112625L174.347 4.17452e-05C174.403 -0.000741806 174.459 0.00951177 174.511 0.0302308C174.563 0.0509499 174.61 0.0817224 174.651 0.120789C174.691 0.159856 174.723 0.206454 174.745 0.257919C174.767 0.309384 174.779 0.364709 174.78 0.420736C174.784 5.52048 174.801 10.638 174.833 15.7733C174.841 16.8478 174.995 17.7978 175.295 18.6234C175.364 18.8166 175.491 18.9839 175.659 19.1026C175.826 19.2213 176.026 19.2857 176.231 19.287L195.975 19.4411C196.781 19.449 197.179 19.8539 197.172 20.6558L197.095 28.1217C197.09 28.5466 196.918 28.9526 196.617 29.252C196.315 29.5513 195.908 29.72 195.483 29.7215L175.586 29.8223C175.471 29.8223 175.357 29.845 175.251 29.8891C175.145 29.9333 175.049 29.998 174.968 30.0795C174.887 30.161 174.823 30.2577 174.779 30.3641C174.736 30.4704 174.714 30.5843 174.715 30.6992C174.774 48.4555 174.786 66.113 174.75 83.6718C174.75 85.4968 175.443 88.4891 176.391 90.0652C178.323 93.2609 181.013 94.8687 184.462 94.8884C185.797 94.8924 187.756 94.4539 190.34 93.573C198.985 90.6103 207.162 86.273 215.41 82.3445C216.565 81.7934 216.779 80.8454 216.387 79.6248C213.603 70.9659 213.492 62.2615 216.056 53.5118C217.981 46.9406 223.095 39.7294 229.014 35.8009C233.115 33.0792 237.525 31.116 242.246 29.9112C245.913 28.9749 249.925 29.1172 253.794 29.206C257.023 29.2831 261.041 30.4563 264.069 31.6591C270.606 34.2623 275.884 38.414 279.901 44.1142C282.544 47.8649 284.867 54.0214 284.973 58.6965C284.975 58.7896 284.958 58.882 284.922 58.9677C284.886 59.0534 284.833 59.1305 284.766 59.1942C284.205 59.7196 283.577 60.1403 282.882 60.4563C270.912 65.8523 259.018 71.4083 247.199 77.1243C244.1 78.6293 239.751 80.3832 236.137 82.303C234.732 83.0496 232.522 83.6066 231.07 84.7739ZM265.556 42.1885C259.429 36.9682 248.532 36.9564 241.546 39.291C234.969 41.4893 230.673 45.3052 227.373 51.3313C223.255 58.8564 223.456 66.7134 224.855 75.1748C224.969 75.8701 225.242 76.3441 225.672 76.5969C225.862 76.7115 226.056 76.7194 226.253 76.6206C234.221 72.7375 242.224 68.9256 250.263 65.1847C256.709 62.1805 264.827 57.8728 272.34 54.6494C273.134 54.3097 273.808 53.7982 274.361 53.1148C274.487 52.9568 274.499 52.7889 274.397 52.6111C272.007 48.6451 269.06 45.1709 265.556 42.1885Z" fill="#486371"/>
<path d="M573.739 0.106445C574.422 0.106445 574.762 0.446166 574.758 1.1256L574.752 18.4513C574.752 18.731 574.863 18.9993 575.061 19.1971C575.259 19.3949 575.527 19.506 575.807 19.506L596.237 19.5416C596.379 19.5431 596.514 19.5995 596.615 19.6991C596.715 19.7986 596.773 19.9333 596.776 20.0748L596.936 29.2591C596.944 29.8003 596.682 30.0314 596.148 29.9524C595.655 29.8773 595.042 29.8457 594.312 29.8576C587.995 29.9603 581.789 29.9484 575.694 29.822C575.57 29.8197 575.447 29.8422 575.331 29.8882C575.216 29.9343 575.111 30.003 575.023 30.0902C574.934 30.1775 574.864 30.2815 574.817 30.3962C574.769 30.511 574.745 30.634 574.746 30.7582C574.833 47.4558 574.835 64.1179 574.752 80.7444C574.736 83.553 574.936 85.6466 575.35 87.0253C575.836 88.6606 577.638 93.1817 579.469 93.9164C583.717 95.6288 587.776 94.5623 591.835 93.0098C592.342 92.8172 592.895 92.7791 593.424 92.9004C593.953 93.0216 594.435 93.2968 594.809 93.6913L599.295 98.4256C599.428 98.5665 599.526 98.7372 599.58 98.9236C599.634 99.11 599.642 99.3066 599.604 99.4969C599.566 99.6871 599.484 99.8656 599.363 100.017C599.242 100.169 599.087 100.29 598.91 100.369C597.013 101.218 595.07 102.003 593.079 102.721C587.723 104.645 582.293 104.821 576.79 103.249C569.313 101.116 565.503 93.8809 565.005 86.5335C564.851 84.3292 564.661 82.0835 564.679 79.8734C564.786 63.3772 564.803 46.8989 564.732 30.4383C564.732 30.3146 564.706 30.1923 564.657 30.0788C564.608 29.9652 564.536 29.8628 564.447 29.7776C564.357 29.6924 564.251 29.6261 564.135 29.5829C564.019 29.5396 563.896 29.5202 563.772 29.5258L559.672 29.6917C559.507 29.6988 559.343 29.6728 559.188 29.6152C559.034 29.5576 558.892 29.4695 558.772 29.3563C558.652 29.243 558.556 29.1068 558.49 28.9558C558.424 28.8047 558.388 28.6419 558.386 28.477C558.357 26.5749 557.871 20.8274 558.997 19.4112C559.131 19.2453 559.305 19.1821 559.518 19.2216C561.181 19.5416 562.824 19.4803 564.448 19.0379C564.649 18.9826 564.748 18.8503 564.744 18.6409L564.685 1.65296C564.685 1.24437 564.847 0.852519 565.134 0.563603C565.422 0.274687 565.813 0.112376 566.22 0.112376L573.739 0.106445Z" fill="#486371"/>
<path d="M629.346 16.9457C633.377 16.5718 636.351 13.1041 635.989 9.20045C635.627 5.29679 632.066 2.43536 628.035 2.80928C624.004 3.18321 621.03 6.65087 621.392 10.5545C621.754 14.4582 625.315 17.3196 629.346 16.9457Z" fill="#E1A93B"/>
<path d="M319.891 42.8283C324.655 33.6381 335.232 29.7688 344.985 29.597C346.004 29.5792 346.632 30.3613 346.609 31.3924C346.561 33.561 346.516 35.7712 346.472 38.0228C346.468 38.2934 346.36 38.5519 346.17 38.7449C345.98 38.938 345.724 39.0507 345.453 39.0597C336.802 39.3738 328.661 41.3706 323.784 49.3047C320.442 54.7441 319.601 59.834 319.559 66.7311C319.488 78.4751 319.437 90.2033 319.405 101.916C319.405 103.006 318.86 103.553 317.77 103.557L310.067 103.581C309.904 103.581 309.747 103.516 309.631 103.402C309.516 103.288 309.451 103.132 309.451 102.97V30.6043C309.451 30.3554 309.575 30.233 309.824 30.2369L317.746 30.308C318.055 30.3111 318.35 30.4351 318.568 30.6533C318.787 30.8716 318.911 31.1667 318.914 31.4753L319.02 42.6149C319.032 43.8553 319.322 43.9264 319.891 42.8283Z" fill="#486371"/>
<path d="M378.214 42.5262C379.002 41.5012 379.684 40.1561 380.508 39.1903C387.908 30.48 402.414 28.2462 412.961 30.3023C417.227 31.1397 421.132 32.8561 424.675 35.4514C432.248 41.0094 435.21 51.4676 435.187 60.6578C435.147 74.8352 435.106 88.9651 435.062 103.048C435.062 103.144 435.043 103.24 435.005 103.328C434.968 103.417 434.913 103.498 434.844 103.565C434.775 103.633 434.693 103.685 434.604 103.721C434.514 103.756 434.418 103.773 434.321 103.771L426.47 103.581C426.129 103.573 425.805 103.433 425.566 103.189C425.327 102.946 425.192 102.619 425.191 102.277C425.147 89.0441 425.131 75.961 425.143 63.0279C425.155 50.241 420.693 39.8717 406.188 38.894C401.88 38.6037 396.903 38.8407 392.874 40.2509C387.17 42.2537 382.996 45.9274 380.353 51.2721C377.646 56.7411 377.693 62.068 377.58 69.6051C377.418 80.4721 377.383 91.2977 377.474 102.082C377.477 102.482 377.324 102.869 377.046 103.158C376.768 103.448 376.388 103.619 375.986 103.634L369.552 103.883C369.29 103.893 369.029 103.849 368.785 103.756C368.54 103.663 368.317 103.521 368.129 103.339C367.941 103.158 367.791 102.94 367.69 102.7C367.588 102.459 367.536 102.201 367.537 101.94L367.697 31.1022C367.697 30.9801 367.721 30.8592 367.769 30.7466C367.816 30.634 367.885 30.5319 367.972 30.4464C368.059 30.3609 368.163 30.2936 368.276 30.2485C368.39 30.2034 368.511 30.1814 368.633 30.1838L376.271 30.3438C376.456 30.3482 376.631 30.4231 376.763 30.5531C376.894 30.6831 376.97 30.8584 376.976 31.0429L377.403 42.2715C377.434 43.1089 377.705 43.1938 378.214 42.5262Z" fill="#486371"/>
<path d="M690.515 91.2915C690.924 89.9939 691.173 88.6547 691.641 87.4637C694.256 80.7444 696.796 73.9955 699.261 67.2169C700.055 65.0423 701.14 62.8203 701.874 60.8175C705.339 51.333 708.87 41.8742 712.469 32.441C713.026 30.9775 713.144 30.4205 714.874 30.1657C717.241 29.8181 719.522 29.8359 721.718 30.219C721.895 30.2501 722.062 30.3203 722.208 30.4243C722.354 30.5284 722.475 30.6637 722.562 30.8205C722.648 30.9772 722.699 31.1514 722.71 31.3303C722.721 31.5092 722.692 31.6883 722.625 31.8544C718.045 43.2015 713.832 54.6907 709.222 66.0377C707.687 69.8062 706.271 73.9777 704.908 77.4262C702.226 84.2127 699.633 91.0308 697.128 97.8805C696.488 99.6285 695.653 101.205 694.835 102.775C694.706 103.023 694.512 103.232 694.273 103.378C694.034 103.524 693.759 103.603 693.478 103.604L684.904 103.658C684.648 103.659 684.4 103.572 684.201 103.411C684.003 103.25 683.866 103.025 683.814 102.775C683.494 101.216 683.192 99.6818 682.575 98.1886C677.622 86.2668 674.511 77.4914 670.624 67.6909C667.377 59.5139 664.645 51.5977 661.309 43.6755C659.715 39.8892 658.21 35.5755 656.462 31.5108C656.384 31.3283 656.355 31.1286 656.378 30.9314C656.4 30.7342 656.474 30.5462 656.591 30.386C656.708 30.2258 656.865 30.0988 657.046 30.0176C657.227 29.9364 657.426 29.9037 657.624 29.9228C659.836 30.14 662.109 30.2526 664.444 30.2605C666.097 30.2664 666.855 31.013 667.389 32.447C674.558 51.7122 681.716 70.9814 688.862 90.2546C689.107 90.9143 689.469 91.3468 689.947 91.5522C690.231 91.6707 690.421 91.5838 690.515 91.2915Z" fill="#486371"/>
<path d="M633.721 31.8431L633.745 101.572C633.745 102.045 633.567 102.5 633.246 102.847C632.925 103.194 632.486 103.408 632.014 103.445L625.663 103.937C625.404 103.957 625.144 103.924 624.9 103.839C624.655 103.754 624.43 103.62 624.24 103.444C624.049 103.268 623.897 103.055 623.794 102.817C623.69 102.58 623.636 102.323 623.636 102.064L623.648 32.3704C623.648 31.8989 623.825 31.4445 624.145 31.0976C624.464 30.7508 624.902 30.5367 625.372 30.498L631.689 29.9707C631.947 29.9494 632.208 29.982 632.453 30.0664C632.699 30.1509 632.924 30.2853 633.115 30.4612C633.306 30.6372 633.459 30.8508 633.563 31.0887C633.667 31.3265 633.721 31.5834 633.721 31.8431Z" fill="#486371"/>
<path d="M816.723 53.2398C816.738 51.8598 817.863 50.7467 819.235 50.7537L837.987 50.8488C839.169 50.8548 840.178 51.6973 840.399 52.8634L844.841 76.2133C845.099 77.5671 844.215 78.8814 842.867 79.1488L837.567 80.2003C836.219 80.4677 834.918 79.5869 834.66 78.233C834.431 77.0263 834.107 74.0431 832.768 73.7512C831.789 73.5379 830.423 75.3034 829.76 76.267C809.669 105.467 781.953 117.434 759.494 107.624C752.574 104.601 744.513 98.1881 739.57 89.0609C734.499 79.6956 732.81 67.6094 738.745 54.0227C750.465 27.1932 783.93 22.6012 802.703 40.097C803.706 41.032 803.653 42.6208 802.654 43.5725L798.228 47.7868C797.229 48.7385 795.662 48.6883 794.634 47.7801C780.989 35.7194 757.204 39.3199 748.853 58.4379C744.376 68.6872 745.739 77.1681 749.277 83.7016C752.944 90.4732 759.049 95.291 763.947 97.4306C780.347 104.595 805.171 95.9216 824.007 64.8777C824.534 64.0093 825.338 62.6814 824.856 61.9469C824.435 61.3052 822.821 61.1969 821.939 61.1924L819.119 61.1781C817.747 61.1712 816.647 60.0468 816.662 58.6668L816.723 53.2398Z" fill="#E1A93B"/>
<path d="M526.146 53.2398C526.161 51.8598 527.286 50.7467 528.658 50.7537L547.41 50.8488C548.592 50.8548 549.601 51.6973 549.823 52.8634L554.264 76.2133C554.522 77.5671 553.638 78.8814 552.29 79.1488L546.99 80.2003C545.642 80.4677 544.341 79.5869 544.083 78.233C543.854 77.0263 543.531 74.0431 542.191 73.7512C541.212 73.5379 539.847 75.3034 539.184 76.267C519.092 105.467 491.377 117.434 468.918 107.624C461.998 104.601 453.936 98.1881 448.993 89.0609C443.922 79.6956 442.233 67.6094 448.169 54.0227C459.888 27.1932 493.353 22.6012 512.126 40.097C513.13 41.032 513.077 42.6208 512.077 43.5725L507.652 47.7868C506.652 48.7385 505.085 48.6883 504.058 47.7801C490.412 35.7194 466.627 39.3199 458.276 58.4379C453.799 68.6872 455.162 77.1681 458.7 83.7016C462.367 90.4732 468.472 95.291 473.37 97.4306C489.771 104.595 514.594 95.9216 533.43 64.8777C533.957 64.0093 534.761 62.6814 534.279 61.9469C533.858 61.3052 532.244 61.1969 531.362 61.1924L528.542 61.1781C527.17 61.1712 526.07 60.0468 526.085 58.6668L526.146 53.2398Z" fill="#486371"/>
<path d="M81.7456 53.2398C81.761 51.8598 82.8858 50.7467 84.2579 50.7537L103.01 50.8488C104.192 50.8548 105.2 51.6973 105.422 52.8634L109.864 76.2133C110.121 77.5671 109.238 78.8814 107.89 79.1488L102.59 80.2003C101.242 80.4677 99.9404 79.5869 99.6829 78.233C99.4534 77.0263 99.1302 74.0431 97.7903 73.7512C96.8119 73.5379 95.4461 75.3034 94.7832 76.267C74.6914 105.467 46.9763 117.434 24.5171 107.624C17.5972 104.601 9.53528 98.1881 4.59281 89.0609C-0.478593 79.6956 -2.16696 67.6094 3.76809 54.0227C15.488 27.1932 48.9527 22.6012 67.7259 40.097C68.7292 41.032 68.6761 42.6208 67.6767 43.5725L63.2512 47.7868C62.2517 48.7385 60.6847 48.6883 59.6571 47.7801C46.0117 35.7194 22.2268 39.3199 13.8755 58.4379C9.39839 68.6872 10.7619 77.1681 14.2998 83.7016C17.9667 90.4732 24.0717 95.291 28.9697 97.4306C45.3701 104.595 70.1935 95.9216 89.03 64.8777C89.557 64.0093 90.361 62.6814 89.8787 61.9469C89.4573 61.3052 87.8433 61.1969 86.9619 61.1924L84.1415 61.1781C82.7694 61.1712 81.6696 60.0468 81.685 58.6668L81.7456 53.2398Z" fill="#486371"/>
</svg>
