<svg width="628" height="493" viewBox="0 0 628 493" fill="none" xmlns="http://www.w3.org/2000/svg">
<path d="M247.145 259.518H264.283V267.503H237.083V223.749H264.023V231.734H247.145V241.666H262.205V249.586H247.145V259.518Z" fill="#2F4D5C"/>
<path d="M271.42 267.503L275.185 223.749H286.156L292.258 239.589C293.297 242.229 294.184 244.653 294.92 246.86C295.655 249.067 296.131 250.625 296.348 251.534L296.672 252.832C297.365 249.976 298.88 245.561 301.217 239.589L307.384 223.749H318.355L322.899 267.503H312.902L311.279 250.56L310.435 237.771C309.309 241.017 307.751 245.28 305.761 250.56L299.594 267.049H293.686L287.584 250.56C286.589 247.877 285.745 245.475 285.052 243.354C284.36 241.234 283.905 239.762 283.689 238.94L283.365 237.771C283.365 240.844 283.17 245.107 282.78 250.56L281.417 267.503H271.42Z" fill="#2F4D5C"/>
<path d="M340.334 245.432H343.645C348.924 245.432 351.564 243.03 351.564 238.226C351.564 233.898 349.119 231.734 344.229 231.734H340.334V245.432ZM330.337 223.749H345.397C350.244 223.749 354.161 225.113 357.147 227.839C360.177 230.566 361.691 234.028 361.691 238.226C361.691 243.03 360.112 246.752 356.952 249.392C353.836 252.031 349.985 253.351 345.397 253.351H340.334V267.503H330.337V223.749Z" fill="#2F4D5C"/>
<path d="M367.565 267.503V223.749H377.562V267.503H367.565Z" fill="#2F4D5C"/>
<path d="M396.694 259.518H413.831V267.503H386.631V223.749H413.572V231.734H396.694V241.666H411.754V249.586H396.694V259.518Z" fill="#2F4D5C"/>
<path d="M453.362 223.749V230.825L433.627 259.454H454.141V267.503H421.618V260.168L441.223 231.799H422.007V223.749H453.362Z" fill="#2F4D5C"/>
<path d="M475.05 250.495H485.567L485.112 248.937C483.857 244.696 482.819 241.082 481.996 238.096C481.217 235.11 480.741 233.184 480.568 232.318L480.308 231.02C479.962 233.4 478.361 239.373 475.505 248.937L475.05 250.495ZM490.63 267.503L487.969 258.545H472.648L469.987 267.503H459.535L474.141 223.749H486.735L501.341 267.503H490.63Z" fill="#2F4D5C"/>
<path d="M379.792 279.051V293.992H360.033V360.258H341.358V293.992H321.478V279.051H379.792Z" fill="#2F4D5C"/>
<path d="M392.437 360.258V279.051H410.991V360.258H392.437Z" fill="#2F4D5C"/>
<path d="M317.718 180.966V189.34C314.889 187.605 311.739 186.737 308.269 186.737C305.214 186.737 302.649 187.812 300.574 189.962C298.499 192.075 297.462 194.922 297.462 198.506C297.462 202.014 298.499 204.805 300.574 206.88C302.649 208.917 305.327 209.935 308.609 209.935C312.154 209.935 315.191 209.03 317.718 207.219V215.763C315.417 217.197 312.098 217.913 307.76 217.913C302.177 217.913 297.5 216.121 293.728 212.538C289.993 208.917 288.126 204.239 288.126 198.506C288.126 192.697 289.937 187.963 293.558 184.304C297.217 180.645 301.97 178.816 307.816 178.816C312.117 178.816 315.417 179.532 317.718 180.966Z" fill="#2F4D5C"/>
<path d="M335.387 202.636H344.553L344.157 201.278C343.063 197.582 342.158 194.432 341.441 191.829C340.762 189.227 340.348 187.548 340.197 186.794L339.97 185.662C339.669 187.737 338.273 192.942 335.783 201.278L335.387 202.636ZM348.967 217.461L346.647 209.652H333.294L330.974 217.461H321.864L334.595 179.325H345.572L358.303 217.461H348.967Z" fill="#2F4D5C"/>
<path d="M362.457 217.461L365.739 179.325H375.301L380.62 193.131C381.525 195.432 382.298 197.544 382.94 199.468C383.581 201.392 383.996 202.75 384.184 203.542L384.467 204.673C385.071 202.184 386.391 198.336 388.428 193.131L393.803 179.325H403.365L407.326 217.461H398.612L397.198 202.693L396.462 191.547C395.482 194.376 394.124 198.091 392.389 202.693L387.013 217.064H381.864L376.546 202.693C375.678 200.354 374.943 198.261 374.339 196.412C373.736 194.564 373.34 193.282 373.151 192.565L372.868 191.547C372.868 194.225 372.698 197.94 372.359 202.693L371.171 217.461H362.457Z" fill="#2F4D5C"/>
<path d="M422.522 210.501H427.105C431.405 210.501 433.556 209.03 433.556 206.088C433.556 203.146 431.424 201.674 427.162 201.674H422.522V210.501ZM422.522 186.284V194.828H425.747C428.011 194.828 429.708 194.413 430.84 193.583C432.009 192.754 432.594 191.66 432.594 190.302C432.594 187.624 430.783 186.284 427.162 186.284H422.522ZM413.809 179.325H428.633C432.82 179.325 436.007 180.325 438.195 182.324C440.383 184.285 441.477 186.794 441.477 189.849C441.477 191.848 440.949 193.602 439.893 195.111C438.836 196.62 437.46 197.638 435.762 198.166C440.176 199.487 442.382 202.467 442.382 207.106C442.382 210.124 441.288 212.613 439.1 214.575C436.95 216.499 434.008 217.461 430.274 217.461H413.809V179.325Z" fill="#2F4D5C"/>
<path d="M448.633 217.461V179.325H457.346V217.461H448.633Z" fill="#2F4D5C"/>
<path d="M463.837 198.28C463.837 192.433 465.515 187.718 468.872 184.134C472.267 180.513 476.775 178.703 482.395 178.703C488.053 178.703 492.561 180.494 495.918 184.078C499.275 187.661 500.954 192.395 500.954 198.28C500.954 204.126 499.256 208.86 495.861 212.481C492.504 216.065 488.015 217.857 482.395 217.857C476.737 217.857 472.229 216.065 468.872 212.481C465.515 208.898 463.837 204.164 463.837 198.28ZM475.662 189.792C474.002 191.867 473.172 194.696 473.172 198.28C473.172 201.863 474.002 204.711 475.662 206.823C477.322 208.898 479.566 209.935 482.395 209.935C485.224 209.935 487.468 208.898 489.128 206.823C490.788 204.711 491.618 201.863 491.618 198.28C491.618 194.696 490.788 191.867 489.128 189.792C487.468 187.68 485.224 186.624 482.395 186.624C479.566 186.624 477.322 187.68 475.662 189.792Z" fill="#2F4D5C"/>
<path d="M236.986 213V179.025H250.517V184.408H242.962V193.149H249.579V198.531H242.962V207.617H250.517V213H236.986Z" fill="#61ADAD"/>
<path d="M254.01 213V179.025H259.985V207.519H266.799V213H254.01Z" fill="#61ADAD"/>
<path d="M260.472 341.32V299.582H277.094V306.195H267.812V316.933H275.941V323.545H267.812V334.708H277.094V341.32H260.472Z" fill="#61ADAD"/>
<path d="M296.308 341.32L288.604 317.782H288.361V341.32H281.385V299.582H288.3L295.52 321.483H295.884V299.582H302.8V341.32H296.308Z" fill="#61ADAD"/>
<path d="M208.391 64.2237C211.562 56.7454 208.121 48.0907 200.706 44.8928L99.3584 1.1875C92.9714 -1.56688 85.5444 0.597359 81.5984 6.36276L2.5861 121.807C-1.99521 128.501 -0.328287 137.672 6.30925 142.292L32.4119 160.461C39.0494 165.081 48.1441 163.4 52.7254 156.706C56.8088 150.74 65.586 135.415 73.5 137C79.279 138.157 82.4812 150.899 83.7843 157.658C123.276 362.504 244.515 492.392 388.764 492.446C433.209 492.463 491.806 476.892 539.982 439.327C589.414 400.782 627.019 339.586 627.052 252.322C627.116 80.0032 457.48 -23.6721 314.987 26.4083C307.371 29.0849 303.911 37.7778 307.056 45.267L320.984 78.4286C324.13 85.9178 332.699 89.3425 340.381 86.8679C442.407 54.0054 562.18 129.508 562.134 252.298C562.11 318.126 534.758 360.646 500.273 387.536C464.53 415.407 420.248 426.991 388.789 426.98C283.453 426.94 170.041 321.633 141.666 109.806C140.872 103.88 139.667 94.8233 144 92C147.786 89.5331 156.745 92.7549 161.509 94.8092L176.752 101.383C184.167 104.581 192.749 101.111 195.921 93.6324L208.391 64.2237Z" fill="#486371"/>
</svg>
