<svg width="1185" height="383" viewBox="0 0 1185 383" fill="none" xmlns="http://www.w3.org/2000/svg">
<path d="M469.267 375.25C459.36 373.46 458.643 361.586 458.631 353.788C458.584 327.274 458.584 300.76 458.631 274.246C458.635 273.247 458.678 272.449 458.761 271.852C458.777 271.725 458.84 271.608 458.937 271.523C459.034 271.438 459.159 271.39 459.289 271.39H467.43C467.577 271.389 467.722 271.418 467.858 271.474C467.994 271.53 468.118 271.612 468.222 271.716C468.326 271.82 468.408 271.944 468.465 272.08C468.521 272.216 468.55 272.362 468.55 272.51C468.495 299.273 468.455 325.923 468.432 352.461C468.432 355.143 468.663 357.803 469.125 360.442C470.304 367.144 478.22 366.824 482.563 363.867C482.65 363.808 482.749 363.769 482.853 363.753C482.956 363.736 483.063 363.743 483.164 363.773C483.265 363.802 483.359 363.853 483.438 363.923C483.518 363.992 483.581 364.078 483.624 364.175C485.171 367.695 486.575 372.399 481.698 374.189C477.673 375.666 473.529 376.02 469.267 375.25Z" fill="#486371"/>
<path d="M570.276 356.134C570.196 356.2 570.13 356.281 570.082 356.372C570.033 356.463 570.003 356.562 569.993 356.665C569.983 356.767 569.994 356.871 570.024 356.969C570.054 357.067 570.104 357.158 570.17 357.236C572.113 359.589 574.543 361.218 577.321 362.711C589.32 369.134 604.199 366.871 614.112 357.888C614.357 357.666 614.677 357.547 615.006 357.553C615.336 357.56 615.65 357.692 615.884 357.924C617.124 359.156 618.293 360.476 619.391 361.882C620.571 363.399 618.609 365.265 617.163 366.438C609.409 372.735 600.351 375.619 589.99 375.089C584.005 374.785 578.463 373.501 573.363 371.238C569.986 369.739 567.213 367.007 564.227 364.661C562.929 363.648 562.064 362.397 561.051 361.159C560.937 361.017 560.777 360.92 560.599 360.883C560.421 360.846 560.235 360.873 560.073 360.957C552.86 364.71 545.534 368.248 538.096 371.57C533.071 373.813 529.36 375.121 526.962 375.492C521.214 376.385 515.816 375.135 510.768 371.742C506.502 368.874 504.748 362.433 504.179 357.657C504.069 356.721 504.013 354.143 504.013 349.924C504.021 333.938 503.999 317.991 503.948 302.083C503.947 301.897 503.906 301.713 503.827 301.545C503.747 301.376 503.632 301.227 503.489 301.107C503.346 300.987 503.178 300.9 502.997 300.852C502.816 300.804 502.627 300.795 502.443 300.827C501.029 301.08 499.623 301.064 498.224 300.78C498.074 300.748 497.939 300.667 497.842 300.549C497.744 300.432 497.689 300.286 497.685 300.134L497.489 292.081C497.484 291.83 497.573 291.585 497.739 291.395C497.906 291.205 498.138 291.084 498.39 291.056L503.45 290.523C503.618 290.505 503.774 290.426 503.887 290.299C504.001 290.172 504.065 290.007 504.067 289.836L504.096 272.634C504.098 272.329 504.219 272.036 504.434 271.819C504.649 271.602 504.94 271.478 505.246 271.473L513.553 271.36C513.609 271.36 513.665 271.37 513.717 271.391C513.769 271.411 513.816 271.442 513.856 271.481C513.897 271.52 513.929 271.567 513.951 271.618C513.973 271.67 513.985 271.725 513.986 271.781C513.989 276.881 514.007 281.998 514.039 287.134C514.047 288.208 514.201 289.158 514.501 289.984C514.57 290.177 514.697 290.344 514.865 290.463C515.032 290.582 515.232 290.646 515.437 290.647L535.18 290.801C535.986 290.809 536.385 291.214 536.377 292.016L536.3 299.482C536.296 299.907 536.124 300.313 535.822 300.612C535.521 300.912 535.114 301.08 534.689 301.082L514.791 301.183C514.677 301.183 514.563 301.205 514.457 301.249C514.351 301.294 514.254 301.358 514.173 301.44C514.092 301.521 514.028 301.618 513.985 301.724C513.942 301.831 513.92 301.945 513.92 302.06C513.98 319.816 513.991 337.473 513.956 355.032C513.956 356.857 514.649 359.849 515.597 361.426C517.529 364.621 520.219 366.229 523.668 366.249C525.003 366.253 526.962 365.814 529.545 364.933C538.191 361.971 546.368 357.633 554.616 353.705C555.771 353.154 555.984 352.206 555.593 350.985C552.808 342.326 552.698 333.622 555.261 324.872C557.187 318.301 562.301 311.09 568.22 307.161C572.321 304.44 576.731 302.476 581.451 301.272C585.119 300.335 589.131 300.478 593 300.566C596.229 300.643 600.247 301.817 603.274 303.019C609.812 305.623 615.09 309.774 619.107 315.475C621.75 319.225 624.072 325.382 624.179 330.057C624.181 330.15 624.163 330.242 624.128 330.328C624.092 330.414 624.039 330.491 623.972 330.555C623.411 331.08 622.783 331.501 622.087 331.817C610.118 337.213 598.224 342.769 586.405 348.485C583.306 349.99 578.957 351.744 575.342 353.663C573.938 354.41 571.728 354.967 570.276 356.134ZM604.762 313.549C598.635 308.329 587.738 308.317 580.752 310.651C574.175 312.85 569.879 316.666 566.579 322.692C562.461 330.217 562.662 338.074 564.061 346.535C564.175 347.23 564.448 347.704 564.878 347.957C565.068 348.072 565.261 348.08 565.459 347.981C573.427 344.098 581.43 340.286 589.468 336.545C595.915 333.541 604.033 329.233 611.546 326.01C612.34 325.67 613.014 325.159 613.567 324.475C613.693 324.317 613.705 324.149 613.602 323.971C611.212 320.005 608.266 316.531 604.762 313.549Z" fill="#486371"/>
<path d="M912.945 271.467C913.628 271.467 913.968 271.807 913.964 272.486L913.958 289.812C913.958 290.091 914.069 290.36 914.267 290.557C914.465 290.755 914.733 290.866 915.013 290.866L935.443 290.902C935.585 290.903 935.72 290.96 935.821 291.059C935.921 291.159 935.979 291.294 935.982 291.435L936.142 300.619C936.15 301.161 935.887 301.392 935.354 301.313C934.86 301.238 934.248 301.206 933.517 301.218C927.201 301.321 920.995 301.309 914.9 301.182C914.776 301.18 914.652 301.203 914.537 301.249C914.422 301.295 914.317 301.363 914.228 301.451C914.14 301.538 914.07 301.642 914.023 301.757C913.975 301.871 913.951 301.994 913.952 302.119C914.039 318.816 914.041 335.478 913.958 352.105C913.942 354.913 914.141 357.007 914.556 358.386C915.042 360.021 916.843 364.542 918.674 365.277C922.923 366.989 926.982 365.923 931.041 364.37C931.548 364.178 932.101 364.139 932.63 364.261C933.159 364.382 933.641 364.657 934.015 365.052L938.501 369.786C938.634 369.927 938.732 370.098 938.785 370.284C938.839 370.47 938.848 370.667 938.81 370.857C938.772 371.047 938.69 371.226 938.569 371.378C938.448 371.529 938.292 371.65 938.115 371.729C936.219 372.579 934.276 373.363 932.285 374.082C926.928 376.006 921.499 376.181 915.996 374.609C908.518 372.476 904.708 365.241 904.211 357.894C904.057 355.69 903.867 353.444 903.885 351.234C903.991 334.738 904.009 318.259 903.938 301.799C903.937 301.675 903.912 301.553 903.863 301.439C903.814 301.326 903.742 301.223 903.652 301.138C903.563 301.053 903.457 300.986 903.341 300.943C903.225 300.9 903.102 300.881 902.978 300.886L898.878 301.052C898.713 301.059 898.548 301.033 898.394 300.976C898.239 300.918 898.098 300.83 897.978 300.717C897.858 300.603 897.762 300.467 897.696 300.316C897.63 300.165 897.594 300.002 897.592 299.837C897.562 297.935 897.077 292.188 898.202 290.772C898.337 290.606 898.51 290.542 898.724 290.582C900.387 290.902 902.03 290.841 903.654 290.398C903.855 290.343 903.954 290.211 903.95 290.001L903.891 273.013C903.891 272.605 904.052 272.213 904.34 271.924C904.628 271.635 905.018 271.473 905.425 271.473L912.945 271.467Z" fill="#486371"/>
<path d="M968.552 288.306C972.583 287.932 975.557 284.464 975.195 280.561C974.832 276.657 971.271 273.796 967.241 274.17C963.21 274.544 960.236 278.011 960.598 281.915C960.96 285.819 964.521 288.68 968.552 288.306Z" fill="#E1A93B"/>
<path d="M659.097 314.189C663.861 304.998 674.438 301.129 684.191 300.957C685.21 300.94 685.838 301.722 685.814 302.753C685.767 304.921 685.722 307.132 685.678 309.383C685.674 309.654 685.566 309.912 685.376 310.105C685.186 310.298 684.93 310.411 684.659 310.42C676.008 310.734 667.867 312.731 662.99 320.665C659.648 326.104 658.807 331.194 658.765 338.091C658.694 349.835 658.643 361.564 658.611 373.276C658.611 374.366 658.066 374.913 656.976 374.917L649.273 374.941C649.109 374.941 648.953 374.877 648.837 374.762C648.722 374.648 648.657 374.493 648.657 374.331V301.965C648.657 301.716 648.781 301.593 649.03 301.597L656.952 301.668C657.261 301.671 657.556 301.795 657.774 302.014C657.992 302.232 658.116 302.527 658.119 302.836L658.226 313.975C658.238 315.216 658.528 315.287 659.097 314.189Z" fill="#486371"/>
<path d="M717.42 313.887C718.208 312.862 718.89 311.516 719.713 310.551C727.114 301.84 741.619 299.607 752.166 301.663C756.433 302.5 760.337 304.216 763.881 306.812C771.453 312.37 774.416 322.828 774.392 332.018C774.353 346.196 774.311 360.325 774.268 374.408C774.268 374.504 774.249 374.6 774.211 374.689C774.174 374.778 774.119 374.858 774.05 374.926C773.981 374.993 773.899 375.046 773.809 375.081C773.72 375.116 773.624 375.133 773.527 375.131L765.676 374.941C765.335 374.934 765.01 374.793 764.771 374.55C764.532 374.306 764.398 373.979 764.396 373.638C764.353 360.404 764.337 347.321 764.349 334.388C764.361 321.601 759.899 311.232 745.394 310.254C741.086 309.964 736.109 310.201 732.08 311.611C726.375 313.614 722.202 317.288 719.559 322.632C716.851 328.101 716.899 333.428 716.786 340.965C716.624 351.832 716.589 362.658 716.68 373.442C716.683 373.843 716.529 374.229 716.252 374.519C715.974 374.809 715.594 374.979 715.192 374.995L708.757 375.243C708.496 375.253 708.235 375.21 707.99 375.116C707.746 375.023 707.523 374.881 707.335 374.7C707.147 374.518 706.997 374.301 706.895 374.06C706.794 373.82 706.742 373.561 706.743 373.3L706.903 302.463C706.903 302.34 706.927 302.22 706.974 302.107C707.022 301.994 707.091 301.892 707.178 301.807C707.265 301.721 707.369 301.654 707.482 301.609C707.596 301.564 707.717 301.542 707.839 301.544L715.477 301.704C715.661 301.709 715.837 301.783 715.968 301.913C716.099 302.043 716.176 302.219 716.182 302.403L716.608 313.632C716.64 314.469 716.911 314.554 717.42 313.887Z" fill="#486371"/>
<path d="M1029.72 362.652C1030.13 361.354 1030.38 360.015 1030.85 358.824C1033.46 352.105 1036 345.356 1038.47 338.577C1039.26 336.403 1040.35 334.181 1041.08 332.178C1044.54 322.693 1048.08 313.235 1051.67 303.801C1052.23 302.338 1052.35 301.781 1054.08 301.526C1056.45 301.178 1058.73 301.196 1060.92 301.579C1061.1 301.61 1061.27 301.681 1061.41 301.785C1061.56 301.889 1061.68 302.024 1061.77 302.181C1061.85 302.338 1061.91 302.512 1061.92 302.691C1061.93 302.87 1061.9 303.049 1061.83 303.215C1057.25 314.562 1053.04 326.051 1048.43 337.398C1046.89 341.167 1045.48 345.338 1044.11 348.787C1041.43 355.573 1038.84 362.391 1036.33 369.241C1035.69 370.989 1034.86 372.565 1034.04 374.135C1033.91 374.384 1033.72 374.592 1033.48 374.739C1033.24 374.885 1032.96 374.963 1032.68 374.965L1024.11 375.018C1023.85 375.019 1023.61 374.932 1023.41 374.771C1023.21 374.61 1023.07 374.386 1023.02 374.135C1022.7 372.577 1022.4 371.042 1021.78 369.549C1016.83 357.627 1013.72 348.852 1009.83 339.051C1006.58 330.874 1003.85 322.958 1000.52 315.036C998.921 311.25 997.416 306.936 995.668 302.871C995.59 302.689 995.561 302.489 995.583 302.292C995.606 302.095 995.679 301.907 995.797 301.746C995.914 301.586 996.071 301.459 996.252 301.378C996.433 301.297 996.632 301.264 996.83 301.283C999.042 301.5 1001.32 301.613 1003.65 301.621C1005.3 301.627 1006.06 302.373 1006.59 303.807C1013.76 323.073 1020.92 342.342 1028.07 361.615C1028.31 362.275 1028.67 362.707 1029.15 362.913C1029.44 363.031 1029.63 362.944 1029.72 362.652Z" fill="#486371"/>
<path d="M972.927 303.203L972.951 372.933C972.951 373.405 972.772 373.86 972.452 374.208C972.131 374.555 971.691 374.768 971.22 374.805L964.868 375.297C964.61 375.317 964.35 375.284 964.105 375.199C963.86 375.115 963.636 374.98 963.445 374.804C963.255 374.628 963.103 374.415 962.999 374.178C962.896 373.94 962.842 373.684 962.842 373.425L962.854 303.731C962.854 303.259 963.031 302.805 963.35 302.458C963.67 302.111 964.108 301.897 964.578 301.858L970.894 301.331C971.153 301.31 971.414 301.342 971.659 301.427C971.905 301.511 972.13 301.646 972.321 301.822C972.512 301.998 972.665 302.211 972.769 302.449C972.873 302.687 972.927 302.944 972.927 303.203Z" fill="#486371"/>
<path d="M1155.93 324.6C1155.94 323.22 1157.07 322.107 1158.44 322.114L1177.19 322.209C1178.37 322.215 1179.38 323.058 1179.61 324.224L1184.05 347.574C1184.3 348.927 1183.42 350.242 1182.07 350.509L1176.77 351.561C1175.42 351.828 1174.12 350.947 1173.87 349.593C1173.64 348.387 1173.31 345.403 1171.97 345.112C1170.99 344.898 1169.63 346.664 1168.97 347.627C1148.87 376.828 1121.16 388.795 1098.7 378.984C1091.78 375.961 1083.72 369.548 1078.78 360.421C1073.7 351.056 1072.02 338.97 1077.95 325.383C1089.67 298.554 1123.14 293.962 1141.91 311.457C1142.91 312.392 1142.86 313.981 1141.86 314.933L1137.43 319.147C1136.43 320.099 1134.87 320.049 1133.84 319.14C1120.19 307.08 1096.41 310.68 1088.06 329.798C1083.58 340.048 1084.94 348.528 1088.48 355.062C1092.15 361.834 1098.25 366.651 1103.15 368.791C1119.55 375.955 1144.38 367.282 1163.21 336.238C1163.74 335.37 1164.54 334.042 1164.06 333.307C1163.64 332.666 1162.03 332.557 1161.14 332.553L1158.32 332.538C1156.95 332.532 1155.85 331.407 1155.87 330.027L1155.93 324.6Z" fill="#E1A93B"/>
<path d="M865.352 324.6C865.367 323.22 866.492 322.107 867.864 322.114L886.616 322.209C887.798 322.215 888.807 323.058 889.029 324.224L893.47 347.574C893.728 348.927 892.844 350.242 891.496 350.509L886.196 351.561C884.848 351.828 883.547 350.947 883.289 349.593C883.06 348.387 882.736 345.403 881.397 345.112C880.418 344.898 879.052 346.664 878.389 347.627C858.298 376.828 830.583 388.795 808.123 378.984C801.203 375.961 793.142 369.548 788.199 360.421C783.128 351.056 781.439 338.97 787.374 325.383C799.094 298.554 832.559 293.962 851.332 311.457C852.336 312.392 852.282 313.981 851.283 314.933L846.857 319.147C845.858 320.099 844.291 320.049 843.263 319.14C829.618 307.08 805.833 310.68 797.482 329.798C793.005 340.048 794.368 348.528 797.906 355.062C801.573 361.834 807.678 366.651 812.576 368.791C828.976 375.955 853.8 367.282 872.636 336.238C873.163 335.37 873.967 334.042 873.485 333.307C873.064 332.666 871.45 332.557 870.568 332.553L867.748 332.538C866.376 332.532 865.276 331.407 865.291 330.027L865.352 324.6Z" fill="#486371"/>
<path d="M420.951 324.6C420.967 323.22 422.092 322.107 423.464 322.114L442.216 322.209C443.397 322.215 444.406 323.058 444.628 324.224L449.07 347.574C449.327 348.927 448.443 350.242 447.096 350.509L441.795 351.561C440.448 351.828 439.146 350.947 438.889 349.593C438.659 348.387 438.336 345.403 436.996 345.112C436.018 344.898 434.652 346.664 433.989 347.627C413.897 376.828 386.182 388.795 363.723 378.984C356.803 375.961 348.741 369.548 343.799 360.421C338.727 351.056 337.039 338.97 342.974 325.383C354.694 298.554 388.159 293.962 406.932 311.457C407.935 312.392 407.882 313.981 406.882 314.933L402.457 319.147C401.458 320.099 399.89 320.049 398.863 319.14C385.217 307.08 361.433 310.68 353.081 329.798C348.604 340.048 349.968 348.528 353.506 355.062C357.173 361.834 363.277 366.651 368.176 368.791C384.576 375.955 409.399 367.282 428.236 336.238C428.763 335.37 429.567 334.042 429.085 333.307C428.663 332.666 427.049 332.557 426.168 332.553L423.347 332.538C421.975 332.532 420.875 331.407 420.891 330.027L420.951 324.6Z" fill="#486371"/>
<path d="M0 245.871L13.33 90.9668H52.171L73.7749 147.045C77.4522 156.391 80.5931 164.972 83.1979 172.786C85.8026 180.6 87.488 186.116 88.2541 189.333L89.4032 193.93C91.8547 183.817 97.2174 168.189 105.491 147.045L127.325 90.9668H166.166L182.254 245.871H146.86L141.115 185.886L138.127 140.61C134.143 152.101 128.627 167.193 121.579 185.886L99.7455 244.262H78.8311L57.2273 185.886C53.7032 176.386 50.7155 167.883 48.264 160.375C45.8125 152.867 44.2037 147.658 43.4376 144.747L42.2884 140.61C42.2884 151.488 41.5989 166.58 40.22 185.886L35.3936 245.871H0Z" fill="#E1A93B"/>
<path d="M258.92 247.71C240.687 247.71 226.59 242.27 216.631 231.392C206.672 220.36 201.692 206.264 201.692 189.104C201.692 171.177 206.902 156.468 217.321 144.976C227.74 133.332 241.606 127.509 258.92 127.509C276.999 127.509 291.019 133.102 300.978 144.287C310.937 155.472 315.917 169.721 315.917 187.035C315.917 204.655 310.861 219.211 300.748 230.702C290.789 242.041 276.846 247.71 258.92 247.71ZM258.69 153.94C251.335 153.94 245.819 157.081 242.142 163.363C238.465 169.645 236.626 177.765 236.626 187.725C236.626 197.684 238.465 205.881 242.142 212.316C245.973 218.598 251.642 221.739 259.149 221.739C266.504 221.739 271.943 218.675 275.467 212.546C279.144 206.264 280.983 198.143 280.983 188.184C280.983 165.355 273.552 153.94 258.69 153.94Z" fill="#E1A93B"/>
<path d="M371.394 129.348V147.505C377.829 134.634 388.784 128.199 404.259 128.199C420.654 128.199 431.532 135.553 436.895 150.263C439.499 143.368 443.866 138.005 449.995 134.175C456.124 130.191 463.325 128.199 471.599 128.199C483.09 128.199 492.13 131.876 498.719 139.231C505.46 146.432 508.831 157.081 508.831 171.177V245.871H475.276V176.693C475.276 170.104 473.974 164.895 471.369 161.064C468.764 157.234 465.01 155.319 460.107 155.319C454.898 155.319 450.225 157.464 446.088 161.754C442.104 165.891 440.112 173.399 440.112 184.277V245.871H406.557V176.693C406.557 170.104 405.255 164.895 402.65 161.064C400.046 157.234 396.292 155.319 391.389 155.319C386.179 155.319 381.506 157.464 377.369 161.754C373.385 165.891 371.394 173.399 371.394 184.277V245.871H337.839V129.348H371.394Z" fill="#E1A93B"/>
<path d="M602.687 176.923V174.165C601.615 160.528 595.639 153.71 584.761 153.71C579.398 153.71 574.648 155.702 570.511 159.685C566.374 163.516 563.616 169.262 562.237 176.923H602.687ZM626.819 211.167V239.206C618.852 244.416 606.671 247.02 590.276 247.02C571.124 247.02 556.185 241.504 545.46 230.473C534.888 219.288 529.602 204.962 529.602 187.495C529.602 168.955 534.735 154.476 545 144.057C555.419 133.485 568.213 128.199 583.382 128.199C599.01 128.199 611.344 132.796 620.384 141.989C629.424 151.029 633.944 164.588 633.944 182.668C633.944 186.192 633.331 192.244 632.105 200.825H563.616C565.915 207.26 569.898 212.24 575.567 215.764C581.237 219.288 588.055 221.05 596.022 221.05C607.82 221.05 618.086 217.755 626.819 211.167Z" fill="#E1A93B"/>
<path d="M691.448 129.348V149.113C694.359 142.678 698.802 137.622 704.778 133.945C710.906 130.114 718.184 128.199 726.611 128.199C738.562 128.199 747.909 131.8 754.65 139.001C761.392 146.049 764.763 156.468 764.763 170.258V245.871H731.208V176.463C731.208 169.568 729.599 164.359 726.381 160.835C723.164 157.157 718.644 155.319 712.822 155.319C706.693 155.319 701.56 157.77 697.423 162.673C693.439 167.423 691.448 174.624 691.448 184.277V245.871H657.893V129.348H691.448Z" fill="#E1A93B"/>
<path d="M830.052 153.94V207.49C830.052 211.627 831.201 214.768 833.5 216.913C835.951 219.058 839.092 220.13 842.922 220.13C849.051 220.13 854.49 218.598 859.24 215.534V243.343C853.571 245.795 845.91 247.02 836.257 247.02C809.751 247.02 796.497 233.767 796.497 207.26V153.94H779.72V129.348H796.497V101.769H830.052V129.348H857.172V153.94H830.052Z" fill="#E1A93B"/>
<path d="M1046.74 129.348V147.505C1053.17 134.634 1064.13 128.199 1079.6 128.199C1096 128.199 1106.88 135.553 1112.24 150.263C1114.84 143.368 1119.21 138.005 1125.34 134.175C1131.47 130.191 1138.67 128.199 1146.94 128.199C1158.44 128.199 1167.48 131.876 1174.06 139.231C1180.81 146.432 1184.18 157.081 1184.18 171.177V245.871H1150.62V176.693C1150.62 170.104 1149.32 164.895 1146.71 161.064C1144.11 157.234 1140.36 155.319 1135.45 155.319C1130.24 155.319 1125.57 157.464 1121.43 161.754C1117.45 165.891 1115.46 173.399 1115.46 184.277V245.871H1081.9V176.693C1081.9 170.104 1080.6 164.895 1078 161.064C1075.39 157.234 1071.64 155.319 1066.73 155.319C1061.52 155.319 1056.85 157.464 1052.71 161.754C1048.73 165.891 1046.74 173.399 1046.74 184.277V245.871H1013.18V129.348H1046.74Z" fill="#E1A93B"/>
<path d="M1018.53 72.6356C1019.67 70.2771 1017.49 67.8143 1015.14 68.9822C1009.02 72.026 1003.89 76.4716 999.671 82.0027C991.002 93.3686 985.706 110.099 985.706 129.871C985.706 149.643 985.587 245.871 985.587 245.871H952.032V227.255C945.903 240.278 934.105 246.79 916.638 246.79C904.687 246.79 895.341 243.496 888.599 236.908C882.011 230.166 878.716 220.283 878.716 207.26V129.348H912.271V199.675C912.271 213.312 918.247 220.13 930.198 220.13C944.754 220.13 952.032 210.401 952.032 190.942C952.111 183.67 951.985 176.182 951.857 168.585C951.234 131.576 950.567 91.9665 973.433 61.9891C983.458 48.8457 996.96 39.1218 1013.3 34.4553C1015.53 33.8193 1016.41 31.0408 1014.85 29.3298L1007.43 21.1965C1006.31 19.9725 1006.4 18.075 1007.62 16.9584L1025.35 0.783675C1026.58 -0.332953 1028.48 -0.245869 1029.59 0.978184L1065.48 40.3133C1066.3 41.2207 1066.49 42.541 1065.96 43.6459L1041.66 93.6737C1040.93 95.1641 1039.14 95.7854 1037.65 95.0616L1016.06 84.576C1014.57 83.8521 1013.95 82.0571 1014.67 80.5667L1018.53 72.6356Z" fill="#E1A93B"/>
</svg>
