<svg width="1185" height="298" viewBox="0 0 1185 298" fill="none" xmlns="http://www.w3.org/2000/svg">
<path d="M469.267 290.686C459.36 288.897 458.643 277.022 458.631 269.224C458.584 242.711 458.584 216.197 458.631 189.683C458.635 188.683 458.678 187.885 458.761 187.289C458.777 187.161 458.84 187.044 458.937 186.959C459.034 186.874 459.159 186.827 459.289 186.827H467.43C467.577 186.826 467.722 186.854 467.858 186.91C467.994 186.966 468.118 187.049 468.222 187.153C468.326 187.257 468.408 187.38 468.465 187.517C468.521 187.653 468.55 187.799 468.55 187.947C468.495 214.709 468.455 241.36 468.432 267.897C468.432 270.579 468.663 273.24 469.125 275.879C470.304 282.58 478.22 282.26 482.563 279.303C482.65 279.245 482.749 279.206 482.853 279.189C482.956 279.173 483.063 279.18 483.164 279.209C483.265 279.238 483.359 279.29 483.438 279.359C483.518 279.429 483.581 279.515 483.624 279.612C485.171 283.131 486.575 287.836 481.698 289.625C477.673 291.103 473.529 291.456 469.267 290.686Z" fill="white"/>
<path d="M570.276 271.571C570.196 271.636 570.13 271.717 570.082 271.808C570.033 271.899 570.003 271.999 569.993 272.101C569.983 272.204 569.994 272.307 570.024 272.405C570.054 272.503 570.104 272.594 570.17 272.673C572.113 275.025 574.543 276.655 577.321 278.148C589.32 284.571 604.199 282.307 614.112 273.325C614.357 273.103 614.677 272.983 615.006 272.99C615.336 272.996 615.65 273.129 615.884 273.36C617.124 274.593 618.293 275.912 619.391 277.318C620.571 278.835 618.609 280.702 617.163 281.875C609.409 288.172 600.351 291.055 589.99 290.526C584.005 290.222 578.463 288.938 573.363 286.674C569.986 285.175 567.213 282.444 564.227 280.097C562.929 279.084 562.064 277.834 561.051 276.595C560.937 276.454 560.777 276.356 560.599 276.32C560.421 276.283 560.235 276.309 560.073 276.394C552.86 280.147 545.534 283.684 538.096 287.006C533.071 289.25 529.36 290.558 526.962 290.929C521.214 291.822 515.816 290.571 510.768 287.178C506.502 284.31 504.748 277.869 504.179 273.094C504.069 272.157 504.013 269.58 504.013 265.361C504.021 249.374 503.999 233.427 503.948 217.52C503.947 217.334 503.906 217.15 503.827 216.981C503.747 216.812 503.632 216.663 503.489 216.544C503.346 216.424 503.178 216.337 502.997 216.289C502.816 216.24 502.627 216.232 502.443 216.264C501.029 216.516 499.623 216.501 498.224 216.216C498.074 216.184 497.939 216.103 497.842 215.986C497.744 215.869 497.689 215.722 497.685 215.57L497.489 207.518C497.484 207.266 497.573 207.021 497.739 206.831C497.906 206.642 498.138 206.521 498.39 206.493L503.45 205.959C503.618 205.942 503.774 205.862 503.887 205.735C504.001 205.609 504.065 205.444 504.067 205.272L504.096 188.071C504.098 187.765 504.219 187.473 504.434 187.255C504.649 187.038 504.94 186.914 505.246 186.909L513.553 186.797C513.609 186.796 513.665 186.806 513.717 186.827C513.769 186.848 513.816 186.879 513.856 186.918C513.897 186.957 513.929 187.003 513.951 187.055C513.973 187.106 513.985 187.162 513.986 187.218C513.989 192.317 514.007 197.435 514.039 202.57C514.047 203.645 514.201 204.595 514.501 205.42C514.57 205.613 514.697 205.781 514.865 205.899C515.032 206.018 515.232 206.083 515.437 206.084L535.18 206.238C535.986 206.246 536.385 206.651 536.377 207.453L536.3 214.919C536.296 215.343 536.124 215.749 535.822 216.049C535.521 216.348 535.114 216.517 534.689 216.518L514.791 216.619C514.677 216.619 514.563 216.642 514.457 216.686C514.351 216.73 514.254 216.795 514.173 216.876C514.092 216.958 514.028 217.055 513.985 217.161C513.942 217.267 513.92 217.381 513.92 217.496C513.98 235.252 513.991 252.91 513.956 270.469C513.956 272.294 514.649 275.286 515.597 276.862C517.529 280.058 520.219 281.666 523.668 281.685C525.003 281.689 526.962 281.251 529.545 280.37C538.191 277.407 546.368 273.07 554.616 269.141C555.771 268.59 555.984 267.642 555.593 266.422C552.808 257.763 552.698 249.058 555.261 240.309C557.187 233.737 562.301 226.526 568.22 222.598C572.321 219.876 576.731 217.913 581.451 216.708C585.119 215.772 589.131 215.914 593 216.003C596.229 216.08 600.247 217.253 603.274 218.456C609.812 221.059 615.09 225.211 619.107 230.911C621.75 234.662 624.072 240.818 624.179 245.493C624.181 245.586 624.163 245.679 624.128 245.765C624.092 245.85 624.039 245.927 623.972 245.991C623.411 246.516 622.783 246.937 622.087 247.253C610.118 252.649 598.224 258.205 586.405 263.921C583.306 265.426 578.957 267.18 575.342 269.1C573.938 269.846 571.728 270.403 570.276 271.571ZM604.762 228.985C598.635 223.765 587.738 223.753 580.752 226.088C574.175 228.286 569.879 232.102 566.579 238.128C562.461 245.653 562.662 253.51 564.061 261.972C564.175 262.667 564.448 263.141 564.878 263.394C565.068 263.508 565.261 263.516 565.459 263.417C573.427 259.534 581.43 255.722 589.468 251.982C595.915 248.977 604.033 244.67 611.546 241.446C612.34 241.107 613.014 240.595 613.567 239.912C613.693 239.754 613.705 239.586 613.602 239.408C611.212 235.442 608.266 231.968 604.762 228.985Z" fill="white"/>
<path d="M912.945 186.903C913.628 186.903 913.968 187.243 913.964 187.922L913.958 205.248C913.958 205.528 914.069 205.796 914.267 205.994C914.465 206.192 914.733 206.303 915.013 206.303L935.443 206.338C935.585 206.34 935.72 206.396 935.821 206.496C935.921 206.595 935.979 206.73 935.982 206.872L936.142 216.056C936.15 216.597 935.888 216.828 935.354 216.749C934.86 216.674 934.248 216.643 933.517 216.654C927.201 216.757 920.995 216.745 914.9 216.619C914.776 216.617 914.652 216.639 914.537 216.685C914.422 216.731 914.317 216.8 914.229 216.887C914.14 216.974 914.07 217.078 914.023 217.193C913.975 217.308 913.951 217.431 913.952 217.555C914.039 234.253 914.041 250.915 913.958 267.541C913.942 270.35 914.142 272.443 914.556 273.822C915.042 275.458 916.843 279.979 918.674 280.713C922.923 282.426 926.982 281.359 931.041 279.807C931.548 279.614 932.101 279.576 932.63 279.697C933.159 279.818 933.641 280.094 934.015 280.488L938.501 285.222C938.634 285.363 938.732 285.534 938.786 285.72C938.839 285.907 938.848 286.103 938.81 286.294C938.772 286.484 938.69 286.663 938.569 286.814C938.448 286.966 938.292 287.087 938.115 287.166C936.219 288.015 934.276 288.799 932.285 289.518C926.928 291.442 921.499 291.618 915.996 290.046C908.518 287.913 904.708 280.678 904.211 273.33C904.057 271.126 903.867 268.88 903.885 266.67C903.991 250.174 904.009 233.696 903.938 217.235C903.937 217.111 903.912 216.989 903.863 216.876C903.814 216.762 903.742 216.66 903.652 216.574C903.563 216.489 903.457 216.423 903.341 216.38C903.225 216.336 903.102 216.317 902.978 216.323L898.878 216.489C898.713 216.496 898.549 216.47 898.394 216.412C898.239 216.354 898.098 216.266 897.978 216.153C897.858 216.04 897.762 215.904 897.696 215.753C897.63 215.602 897.594 215.439 897.592 215.274C897.562 213.372 897.077 207.624 898.202 206.208C898.337 206.042 898.511 205.979 898.724 206.018C900.387 206.338 902.03 206.277 903.654 205.835C903.855 205.779 903.954 205.647 903.95 205.438L903.891 188.45C903.891 188.041 904.052 187.649 904.34 187.36C904.628 187.072 905.018 186.909 905.425 186.909L912.945 186.903Z" fill="white"/>
<path d="M968.552 203.743C972.583 203.369 975.557 199.901 975.195 195.997C974.832 192.094 971.271 189.232 967.241 189.606C963.21 189.98 960.236 193.448 960.598 197.351C960.96 201.255 964.521 204.116 968.552 203.743Z" fill="#E1A93B"/>
<path d="M659.097 229.625C663.861 220.435 674.438 216.566 684.191 216.394C685.21 216.376 685.838 217.158 685.815 218.189C685.767 220.358 685.722 222.568 685.678 224.82C685.674 225.09 685.566 225.349 685.376 225.542C685.186 225.735 684.93 225.848 684.659 225.857C676.008 226.171 667.867 228.167 662.99 236.102C659.648 241.541 658.807 246.631 658.765 253.528C658.694 265.272 658.643 277 658.611 288.713C658.611 289.803 658.066 290.35 656.976 290.354L649.273 290.378C649.11 290.378 648.953 290.313 648.837 290.199C648.722 290.084 648.657 289.929 648.657 289.767V217.401C648.657 217.152 648.781 217.03 649.03 217.034L656.952 217.105C657.261 217.108 657.556 217.232 657.774 217.45C657.992 217.668 658.116 217.964 658.119 218.272L658.226 229.412C658.238 230.652 658.528 230.723 659.097 229.625Z" fill="white"/>
<path d="M717.42 229.323C718.208 228.298 718.89 226.953 719.713 225.987C727.114 217.277 741.619 215.043 752.166 217.099C756.433 217.937 760.338 219.653 763.881 222.248C771.453 227.806 774.416 238.264 774.392 247.455C774.353 261.632 774.311 275.762 774.268 289.845C774.268 289.941 774.249 290.036 774.211 290.125C774.174 290.214 774.119 290.295 774.05 290.362C773.981 290.429 773.899 290.482 773.809 290.518C773.72 290.553 773.624 290.57 773.527 290.567L765.676 290.378C765.335 290.37 765.01 290.23 764.771 289.986C764.532 289.743 764.398 289.415 764.396 289.074C764.353 275.841 764.337 262.758 764.349 249.825C764.361 237.038 759.899 226.669 745.394 225.691C741.086 225.401 736.109 225.638 732.08 227.048C726.375 229.051 722.202 232.724 719.559 238.069C716.851 243.538 716.899 248.865 716.786 256.402C716.624 267.269 716.589 278.095 716.68 288.879C716.683 289.279 716.529 289.665 716.252 289.955C715.974 290.245 715.594 290.416 715.192 290.431L708.757 290.68C708.496 290.69 708.235 290.646 707.99 290.553C707.746 290.459 707.523 290.318 707.335 290.136C707.147 289.955 706.997 289.737 706.895 289.497C706.794 289.256 706.742 288.998 706.743 288.737L706.903 217.899C706.903 217.777 706.927 217.656 706.974 217.543C707.022 217.431 707.091 217.329 707.178 217.243C707.265 217.158 707.369 217.09 707.482 217.045C707.596 217 707.717 216.978 707.839 216.981L715.477 217.141C715.661 217.145 715.837 217.22 715.968 217.35C716.099 217.48 716.176 217.655 716.182 217.84L716.608 229.068C716.64 229.906 716.911 229.991 717.42 229.323Z" fill="white"/>
<path d="M1029.72 278.088C1030.13 276.791 1030.38 275.452 1030.85 274.261C1033.46 267.541 1036 260.792 1038.47 254.014C1039.26 251.839 1040.35 249.617 1041.08 247.614C1044.54 238.13 1048.08 228.671 1051.67 219.238C1052.23 217.774 1052.35 217.217 1054.08 216.963C1056.45 216.615 1058.73 216.633 1060.92 217.016C1061.1 217.047 1061.27 217.117 1061.41 217.221C1061.56 217.325 1061.68 217.461 1061.77 217.617C1061.85 217.774 1061.91 217.948 1061.92 218.127C1061.93 218.306 1061.9 218.485 1061.83 218.651C1057.25 229.998 1053.04 241.488 1048.43 252.835C1046.89 256.603 1045.48 260.775 1044.11 264.223C1041.43 271.01 1038.84 277.828 1036.33 284.677C1035.69 286.425 1034.86 288.001 1034.04 289.572C1033.91 289.82 1033.72 290.029 1033.48 290.175C1033.24 290.321 1032.96 290.4 1032.68 290.401L1024.11 290.455C1023.85 290.456 1023.61 290.369 1023.41 290.208C1023.21 290.047 1023.07 289.822 1023.02 289.572C1022.7 288.013 1022.4 286.479 1021.78 284.985C1016.83 273.064 1013.72 264.288 1009.83 254.488C1006.58 246.311 1003.85 238.395 1000.52 230.472C998.921 226.686 997.416 222.372 995.668 218.308C995.59 218.125 995.561 217.925 995.584 217.728C995.606 217.531 995.68 217.343 995.797 217.183C995.914 217.023 996.071 216.896 996.252 216.814C996.433 216.733 996.632 216.701 996.83 216.72C999.042 216.937 1001.32 217.049 1003.65 217.057C1005.3 217.063 1006.06 217.81 1006.59 219.244C1013.76 238.509 1020.92 257.778 1028.07 277.051C1028.31 277.711 1028.67 278.144 1029.15 278.349C1029.44 278.468 1029.63 278.381 1029.72 278.088Z" fill="white"/>
<path d="M972.927 218.64L972.95 288.369C972.95 288.842 972.772 289.297 972.452 289.644C972.131 289.991 971.691 290.204 971.22 290.242L964.868 290.734C964.61 290.754 964.35 290.721 964.105 290.636C963.86 290.551 963.636 290.417 963.445 290.241C963.255 290.065 963.103 289.851 962.999 289.614C962.895 289.377 962.842 289.12 962.842 288.861L962.854 219.167C962.854 218.696 963.031 218.241 963.35 217.895C963.67 217.548 964.108 217.334 964.578 217.295L970.894 216.768C971.153 216.746 971.414 216.779 971.659 216.863C971.905 216.948 972.13 217.082 972.321 217.258C972.512 217.434 972.665 217.648 972.769 217.886C972.873 218.123 972.927 218.38 972.927 218.64Z" fill="white"/>
<path d="M1155.93 240.037C1155.94 238.657 1157.07 237.544 1158.44 237.551L1177.19 237.646C1178.37 237.652 1179.38 238.494 1179.61 239.66L1184.05 263.01C1184.3 264.364 1183.42 265.678 1182.07 265.946L1176.77 266.997C1175.42 267.265 1174.12 266.384 1173.87 265.03C1173.64 263.823 1173.31 260.84 1171.97 260.548C1170.99 260.335 1169.63 262.1 1168.97 263.064C1148.87 292.264 1121.16 304.231 1098.7 294.42C1091.78 291.398 1083.72 284.985 1078.78 275.858C1073.7 266.492 1072.02 254.406 1077.95 240.82C1089.67 213.99 1123.14 209.398 1141.91 226.894C1142.91 227.829 1142.86 229.418 1141.86 230.369L1137.43 234.584C1136.43 235.535 1134.87 235.485 1133.84 234.577C1120.19 222.516 1096.41 226.117 1088.06 245.235C1083.58 255.484 1084.94 263.965 1088.48 270.498C1092.15 277.27 1098.25 282.088 1103.15 284.227C1119.55 291.392 1144.38 282.718 1163.21 251.675C1163.74 250.806 1164.54 249.478 1164.06 248.744C1163.64 248.102 1162.03 247.994 1161.14 247.989L1158.32 247.975C1156.95 247.968 1155.85 246.844 1155.87 245.464L1155.93 240.037Z" fill="#E1A93B"/>
<path d="M865.352 240.037C865.367 238.657 866.492 237.544 867.864 237.551L886.616 237.646C887.798 237.652 888.807 238.494 889.028 239.66L893.47 263.01C893.728 264.364 892.844 265.678 891.496 265.946L886.196 266.997C884.848 267.265 883.547 266.384 883.289 265.03C883.06 263.823 882.736 260.84 881.397 260.548C880.418 260.335 879.052 262.1 878.389 263.064C858.298 292.264 830.582 304.231 808.123 294.42C801.203 291.398 793.141 284.985 788.199 275.858C783.128 266.492 781.439 254.406 787.374 240.82C799.094 213.99 832.559 209.398 851.332 226.894C852.335 227.829 852.282 229.418 851.283 230.369L846.857 234.584C845.858 235.535 844.291 235.485 843.263 234.577C829.618 222.516 805.833 226.117 797.482 245.235C793.005 255.484 794.368 263.965 797.906 270.498C801.573 277.27 807.678 282.088 812.576 284.227C828.976 291.392 853.8 282.718 872.636 251.675C873.163 250.806 873.967 249.478 873.485 248.744C873.064 248.102 871.45 247.994 870.568 247.989L867.748 247.975C866.376 247.968 865.276 246.844 865.291 245.464L865.352 240.037Z" fill="white"/>
<path d="M420.951 240.037C420.967 238.657 422.092 237.544 423.464 237.551L442.216 237.646C443.397 237.652 444.406 238.494 444.628 239.66L449.07 263.01C449.327 264.364 448.443 265.678 447.096 265.946L441.795 266.997C440.448 267.265 439.146 266.384 438.889 265.03C438.659 263.823 438.336 260.84 436.996 260.548C436.018 260.335 434.652 262.1 433.989 263.064C413.897 292.264 386.182 304.231 363.723 294.42C356.803 291.398 348.741 284.985 343.799 275.858C338.727 266.492 337.039 254.406 342.974 240.82C354.694 213.99 388.159 209.398 406.932 226.894C407.935 227.829 407.882 229.418 406.882 230.369L402.457 234.584C401.458 235.535 399.89 235.485 398.863 234.577C385.217 222.516 361.433 226.117 353.081 245.235C348.604 255.484 349.968 263.965 353.506 270.498C357.173 277.27 363.277 282.088 368.176 284.227C384.576 291.392 409.399 282.718 428.236 251.675C428.763 250.806 429.567 249.478 429.085 248.744C428.663 248.102 427.049 247.994 426.168 247.989L423.347 247.975C421.975 247.968 420.875 246.844 420.891 245.464L420.951 240.037Z" fill="white"/>
<path d="M0 161.308L13.33 6.40332H52.171L73.7749 62.4814C77.4522 71.8278 80.5931 80.4081 83.1979 88.2222C85.8026 96.0364 87.488 101.552 88.2541 104.77L89.4032 109.366C91.8547 99.254 97.2174 83.6256 105.491 62.4814L127.325 6.40332H166.166L182.254 161.308H146.86L141.115 101.322L138.127 56.0462C134.143 67.5377 128.627 82.6297 121.579 101.322L99.7455 159.699H78.8311L57.2273 101.322C53.7032 91.8229 50.7155 83.3192 48.264 75.8115C45.8125 68.3038 44.2037 63.0943 43.4376 60.1832L42.2884 56.0462C42.2884 66.9248 41.5989 82.0168 40.22 101.322L35.3936 161.308H0Z" fill="#E1A93B"/>
<path d="M258.92 163.146C240.687 163.146 226.59 157.707 216.631 146.828C206.672 135.797 201.692 121.701 201.692 104.54C201.692 86.6134 206.902 71.9044 217.321 60.413C227.74 48.7683 241.606 42.946 258.92 42.946C276.999 42.946 291.019 48.5385 300.978 59.7235C310.937 70.9085 315.917 85.1578 315.917 102.472C315.917 120.092 310.861 134.648 300.748 146.139C290.789 157.477 276.846 163.146 258.92 163.146ZM258.69 69.3763C251.335 69.3763 245.819 72.5173 242.142 78.7992C238.465 85.0812 236.626 93.2018 236.626 103.161C236.626 113.12 238.465 121.318 242.142 127.753C245.973 134.035 251.642 137.176 259.149 137.176C266.504 137.176 271.943 134.111 275.467 127.983C279.144 121.701 280.983 113.58 280.983 103.621C280.983 80.7911 273.552 69.3763 258.69 69.3763Z" fill="#E1A93B"/>
<path d="M371.394 44.7847V62.9411C377.829 50.0707 388.784 43.6355 404.259 43.6355C420.654 43.6355 431.532 50.99 436.895 65.699C439.499 58.8042 443.866 53.4415 449.995 49.611C456.124 45.6274 463.325 43.6355 471.599 43.6355C483.09 43.6355 492.13 47.3128 498.719 54.6673C505.46 61.8686 508.831 72.5173 508.831 86.6134V161.308H475.276V92.1293C475.276 85.5409 473.974 80.3314 471.369 76.501C468.764 72.6705 465.01 70.7553 460.107 70.7553C454.898 70.7553 450.225 72.9003 446.088 77.1905C442.104 81.3274 440.112 88.8351 440.112 99.7136V161.308H406.557V92.1293C406.557 85.5409 405.255 80.3314 402.65 76.501C400.046 72.6705 396.292 70.7553 391.389 70.7553C386.179 70.7553 381.506 72.9003 377.369 77.1905C373.385 81.3274 371.394 88.8351 371.394 99.7136V161.308H337.839V44.7847H371.394Z" fill="#E1A93B"/>
<path d="M602.687 92.3591V89.6012C601.615 75.9647 595.639 69.1465 584.761 69.1465C579.398 69.1465 574.648 71.1383 570.511 75.122C566.374 78.9525 563.616 84.6982 562.237 92.3591H602.687ZM626.819 126.604V154.643C618.852 159.852 606.671 162.457 590.276 162.457C571.124 162.457 556.185 156.941 545.46 145.909C534.888 134.724 529.602 120.398 529.602 102.931C529.602 84.3917 534.735 69.9126 545 59.4937C555.419 48.9216 568.213 43.6355 583.382 43.6355C599.01 43.6355 611.344 48.2321 620.384 57.4252C629.424 66.4651 633.944 80.025 633.944 98.1048C633.944 101.629 633.331 107.681 632.105 116.261H563.616C565.915 122.696 569.898 127.676 575.567 131.2C581.237 134.724 588.055 136.486 596.022 136.486C607.82 136.486 618.086 133.192 626.819 126.604Z" fill="#E1A93B"/>
<path d="M691.448 44.7847V64.5499C694.359 58.1147 698.802 53.0585 704.778 49.3812C710.906 45.5508 718.184 43.6355 726.611 43.6355C738.562 43.6355 747.909 47.2362 754.65 54.4374C761.392 61.4855 764.763 71.9044 764.763 85.6941V161.308H731.208V91.8995C731.208 85.0046 729.599 79.7952 726.381 76.2711C723.164 72.5939 718.644 70.7553 712.822 70.7553C706.693 70.7553 701.56 73.2068 697.423 78.1098C693.439 82.8596 691.448 90.0608 691.448 99.7136V161.308H657.893V44.7847H691.448Z" fill="#E1A93B"/>
<path d="M830.052 69.3763V122.926C830.052 127.063 831.201 130.204 833.5 132.349C835.951 134.494 839.092 135.567 842.922 135.567C849.051 135.567 854.49 134.035 859.24 130.97V158.78C853.571 161.231 845.91 162.457 836.257 162.457C809.751 162.457 796.497 149.203 796.497 122.696V69.3763H779.72V44.7847H796.497V17.2053H830.052V44.7847H857.172V69.3763H830.052Z" fill="#E1A93B"/>
<path d="M1046.74 44.7847V62.9411C1053.17 50.0707 1064.13 43.6355 1079.6 43.6355C1096 43.6355 1106.88 50.99 1112.24 65.699C1114.84 58.8042 1119.21 53.4415 1125.34 49.611C1131.47 45.6274 1138.67 43.6355 1146.94 43.6355C1158.44 43.6355 1167.48 47.3128 1174.06 54.6673C1180.81 61.8686 1184.18 72.5173 1184.18 86.6134V161.308H1150.62V92.1293C1150.62 85.5409 1149.32 80.3314 1146.71 76.501C1144.11 72.6705 1140.36 70.7553 1135.45 70.7553C1130.24 70.7553 1125.57 72.9003 1121.43 77.1905C1117.45 81.3274 1115.46 88.8351 1115.46 99.7136V161.308H1081.9V92.1293C1081.9 85.5409 1080.6 80.3314 1078 76.501C1075.39 72.6705 1071.64 70.7553 1066.73 70.7553C1061.52 70.7553 1056.85 72.9003 1052.71 77.1905C1048.73 81.3274 1046.74 88.8351 1046.74 99.7136V161.308H1013.18V44.7847H1046.74Z" fill="#E1A93B"/>
<path d="M955.931 23.623C954.318 25.2613 954.338 27.913 955.976 29.5457L962.417 35.9665C964.055 37.5992 966.691 37.5946 968.304 35.9563L971.62 32.5885C972.657 31.536 974.675 29.7259 975.938 29.9709C977.383 30.2512 978.036 32.7693 978.462 34.4175C993.681 93.334 975.053 133.267 947.272 144.568C938.975 147.943 926.053 149.633 913.638 146.113C901.659 142.716 889.887 134.432 882.825 117.071C874.066 95.5396 881.52 73.8451 896.444 61.056C898.149 59.5944 898.475 57.0152 897.022 55.3027L890.012 47.043C888.691 45.4867 886.377 45.2235 884.816 46.5386C863.975 64.0958 853.52 94.0834 865.704 124.035C875.065 147.05 891.544 159.161 908.714 164.03C925.448 168.775 942.574 166.602 954.296 161.834C992.339 146.359 1010.4 99.1022 998.859 40.8358C998.478 38.9132 997.957 35.2091 999.357 34.2844C1001.04 33.1741 1004.29 35.4218 1006.22 36.7583C1006.49 36.9461 1006.74 37.1159 1006.95 37.2558C1008.88 38.5304 1011.45 37.999 1012.71 36.069L1017.65 28.4787C1018.9 26.5486 1018.36 23.9507 1016.43 22.6761L983.219 0.693361C981.56 -0.404479 979.369 -0.179303 977.98 1.23182L955.931 23.623Z" fill="#E1A93B"/>
</svg>
