<svg xmlns="http://www.w3.org/2000/svg" width="845" height="111" fill="none"><path fill="#fff" d="M130.061 103.889c-9.907-1.789-10.624-13.664-10.636-21.461-.047-26.514-.047-53.028 0-79.542.004-1 .048-1.798.131-2.394a.52.52 0 0 1 .175-.33.535.535 0 0 1 .352-.132h8.141a1.105 1.105 0 0 1 .792.326 1.132 1.132 0 0 1 .328.794c-.055 26.763-.095 53.413-.118 79.95 0 2.683.231 5.343.693 7.982 1.179 6.701 9.095 6.381 13.439 3.425a.705.705 0 0 1 .6-.095.72.72 0 0 1 .46.403c1.547 3.52 2.951 8.224-1.925 10.014-4.026 1.477-8.17 1.83-12.432 1.06ZM231.07 84.774a.789.789 0 0 0-.252.834c.03.098.08.19.146.268 1.943 2.352 4.373 3.982 7.152 5.475 11.998 6.423 26.877 4.16 36.79-4.823a1.292 1.292 0 0 1 1.772.035 42.283 42.283 0 0 1 3.508 3.958c1.179 1.517-.783 3.384-2.228 4.557-7.755 6.297-16.813 9.18-27.174 8.651-5.985-.304-11.527-1.588-16.626-3.851-3.378-1.5-6.151-4.231-9.137-6.578-1.298-1.013-2.163-2.263-3.176-3.501a.781.781 0 0 0-.978-.202 408.708 408.708 0 0 1-21.977 10.612c-5.025 2.244-8.736 3.552-11.134 3.923-5.747.893-11.145-.358-16.194-3.751-4.266-2.868-6.02-9.308-6.589-14.084-.11-.936-.166-3.514-.166-7.733.008-15.986-.013-31.933-.065-47.841a1.27 1.27 0 0 0-.459-.976 1.282 1.282 0 0 0-1.046-.28c-1.414.253-2.82.237-4.219-.048a.682.682 0 0 1-.539-.646l-.195-8.052a1.012 1.012 0 0 1 .9-1.025l5.06-.533a.685.685 0 0 0 .438-.224.71.71 0 0 0 .179-.464l.029-17.201a1.17 1.17 0 0 1 1.15-1.161L174.347 0a.428.428 0 0 1 .433.42c.004 5.1.021 10.218.053 15.353.008 1.075.162 2.025.462 2.85a.997.997 0 0 0 .936.664l19.744.154c.806.008 1.204.413 1.197 1.215l-.077 7.466a1.622 1.622 0 0 1-1.612 1.6l-19.897.1a.873.873 0 0 0-.871.877c.059 17.756.071 35.414.035 52.973 0 1.825.693 4.817 1.641 6.393 1.932 3.196 4.622 4.804 8.071 4.823 1.335.004 3.294-.434 5.878-1.315 8.645-2.963 16.822-7.3 25.07-11.228 1.155-.552 1.369-1.5.977-2.72-2.784-8.66-2.895-17.364-.331-26.113 1.925-6.571 7.039-13.783 12.958-17.711a42.998 42.998 0 0 1 13.232-5.89c3.667-.936 7.679-.794 11.548-.705 3.229.077 7.247 1.25 10.275 2.453 6.537 2.603 11.815 6.755 15.832 12.455 2.643 3.75 4.966 9.907 5.072 14.583a.663.663 0 0 1-.207.497 6.943 6.943 0 0 1-1.884 1.262 1461.293 1461.293 0 0 0-35.683 16.668c-3.099 1.505-7.448 3.26-11.062 5.179-1.405.747-3.615 1.304-5.067 2.47Zm34.486-42.586c-6.127-5.22-17.024-5.232-24.01-2.897-6.577 2.198-10.873 6.014-14.173 12.04-4.118 7.525-3.917 15.382-2.518 23.844.114.695.387 1.17.817 1.422.19.115.384.122.581.024a1483.573 1483.573 0 0 1 24.01-11.436c6.446-3.005 14.564-7.312 22.077-10.536a5.196 5.196 0 0 0 2.021-1.534.414.414 0 0 0 .036-.504 42.185 42.185 0 0 0-8.841-10.422ZM573.739.106c.683 0 1.023.34 1.019 1.02l-.006 17.325a1.054 1.054 0 0 0 1.055 1.055l20.43.036a.546.546 0 0 1 .539.533l.16 9.184c.008.541-.254.772-.788.693-.493-.075-1.106-.106-1.836-.094-6.317.102-12.523.09-18.618-.036a.936.936 0 0 0-.671.268.919.919 0 0 0-.277.668c.087 16.698.089 33.36.006 49.986-.016 2.809.184 4.903.598 6.281.486 1.636 2.288 6.157 4.119 6.891 4.248 1.713 8.307.646 12.366-.906a2.746 2.746 0 0 1 2.974.681l4.486 4.735a1.22 1.22 0 0 1 .309 1.07 1.213 1.213 0 0 1-.694.873 84.147 84.147 0 0 1-5.831 2.352c-5.356 1.924-10.786 2.1-16.289.528-7.477-2.133-11.287-9.368-11.785-16.715-.154-2.205-.344-4.45-.326-6.66.107-16.497.124-32.975.053-49.436a.908.908 0 0 0-.285-.66.922.922 0 0 0-.675-.252l-4.1.166a1.235 1.235 0 0 1-1.286-1.215c-.029-1.902-.515-7.65.611-9.066a.507.507 0 0 1 .521-.19c1.663.32 3.306.26 4.93-.183.201-.055.3-.188.296-.397l-.059-16.988a1.534 1.534 0 0 1 1.535-1.54l7.519-.007Z"/><path fill="#E1A93B" d="M629.346 16.946c4.031-.374 7.005-3.842 6.643-7.746-.362-3.903-3.923-6.765-7.954-6.39-4.031.373-7.005 3.84-6.643 7.745.362 3.903 3.923 6.765 7.954 6.39Z"/><path fill="#fff" d="M319.891 42.828c4.764-9.19 15.341-13.06 25.094-13.231 1.019-.018 1.647.764 1.624 1.795-.048 2.169-.093 4.38-.137 6.63a1.051 1.051 0 0 1-1.019 1.038c-8.651.314-16.792 2.31-21.669 10.245-3.342 5.44-4.183 10.529-4.225 17.426a10618.31 10618.31 0 0 0-.154 35.185c0 1.09-.545 1.637-1.635 1.641l-7.703.024a.61.61 0 0 1-.616-.611V30.604c0-.249.124-.371.373-.367l7.922.071a1.178 1.178 0 0 1 1.168 1.167l.106 11.14c.012 1.24.302 1.311.871.213Zm58.323-.302c.788-1.025 1.47-2.37 2.294-3.336 7.4-8.71 21.906-10.944 32.453-8.888 4.266.838 8.171 2.554 11.714 5.15 7.573 5.557 10.535 16.016 10.512 25.206-.04 14.177-.081 28.307-.125 42.39a.712.712 0 0 1-.458.673.738.738 0 0 1-.283.05l-7.851-.19a1.307 1.307 0 0 1-1.279-1.304c-.044-13.233-.06-26.316-.048-39.25.012-12.786-4.45-23.155-18.955-24.133-4.308-.29-9.285-.053-13.314 1.357-5.704 2.003-9.878 5.676-12.521 11.021-2.707 5.47-2.66 10.796-2.773 18.333a1391.205 1391.205 0 0 0-.106 32.477 1.548 1.548 0 0 1-1.488 1.552l-6.434.249a1.947 1.947 0 0 1-1.862-1.183 1.93 1.93 0 0 1-.153-.76l.16-70.838a.915.915 0 0 1 .936-.918l7.638.16a.725.725 0 0 1 .705.699l.427 11.229c.031.837.302.922.811.254Zm312.301 48.765c.409-1.297.658-2.636 1.126-3.827a967.32 967.32 0 0 0 7.62-20.247c.794-2.175 1.879-4.397 2.613-6.4a2131.532 2131.532 0 0 1 10.595-28.376c.557-1.464.675-2.02 2.405-2.275 2.367-.348 4.648-.33 6.844.053a1.203 1.203 0 0 1 .907 1.635c-4.58 11.348-8.793 22.837-13.403 34.184-1.535 3.768-2.951 7.94-4.314 11.388a849.589 849.589 0 0 0-7.78 20.454c-.64 1.749-1.475 3.325-2.293 4.895a1.538 1.538 0 0 1-1.357.829l-8.574.054a1.11 1.11 0 0 1-1.09-.883c-.32-1.559-.622-3.093-1.239-4.586-4.953-11.922-8.064-20.698-11.951-30.498-3.247-8.177-5.979-16.093-9.315-24.016-1.594-3.786-3.099-8.1-4.847-12.164a1.139 1.139 0 0 1 .129-1.125 1.143 1.143 0 0 1 1.033-.463c2.212.217 4.485.33 6.82.338 1.653.005 2.411.752 2.945 2.186a52065.608 52065.608 0 0 1 21.473 57.808c.245.66.607 1.092 1.085 1.297.284.119.474.032.568-.26Zm-56.794-59.448.024 69.729a1.877 1.877 0 0 1-1.731 1.873l-6.351.492a1.88 1.88 0 0 1-2.027-1.873l.012-69.694a1.877 1.877 0 0 1 1.724-1.872l6.317-.527a1.876 1.876 0 0 1 1.874 1.118c.104.238.158.494.158.754Z"/><path fill="#E1A93B" d="M816.723 53.24a2.51 2.51 0 0 1 2.512-2.486l18.752.095a2.468 2.468 0 0 1 2.412 2.014l4.442 23.35a2.515 2.515 0 0 1-1.974 2.936l-5.3 1.051a2.469 2.469 0 0 1-2.907-1.967c-.229-1.207-.553-4.19-1.892-4.482-.979-.213-2.345 1.552-3.008 2.516-20.091 29.2-47.807 41.167-70.266 31.357-6.92-3.023-14.981-9.436-19.924-18.563-5.071-9.365-6.76-21.452-.825-35.038 11.72-26.83 45.185-31.422 63.958-13.926 1.003.935.95 2.524-.049 3.475l-4.426 4.215c-.999.952-2.566.901-3.594-.007-13.645-12.06-37.43-8.46-45.781 10.658-4.477 10.25-3.114 18.73.424 25.264 3.667 6.771 9.772 11.589 14.67 13.729 16.4 7.164 41.224-1.51 60.06-32.553.527-.869 1.331-2.197.849-2.931-.421-.642-2.035-.75-2.917-.755l-2.82-.014a2.474 2.474 0 0 1-2.457-2.511l.061-5.427Z"/><path fill="#fff" d="M526.146 53.24a2.51 2.51 0 0 1 2.512-2.486l18.752.095a2.47 2.47 0 0 1 2.413 2.014l4.441 23.35a2.515 2.515 0 0 1-1.974 2.936l-5.3 1.051a2.469 2.469 0 0 1-2.907-1.967c-.229-1.207-.552-4.19-1.892-4.482-.979-.213-2.344 1.552-3.007 2.516-20.092 29.2-47.807 41.167-70.266 31.357-6.92-3.023-14.982-9.436-19.925-18.563-5.071-9.365-6.76-21.452-.824-35.038 11.719-26.83 45.184-31.422 63.957-13.926 1.004.935.951 2.524-.049 3.475l-4.425 4.215c-1 .952-2.567.901-3.594-.007-13.646-12.06-37.431-8.46-45.782 10.658-4.477 10.25-3.114 18.73.424 25.264 3.667 6.771 9.772 11.589 14.67 13.729 16.401 7.164 41.224-1.51 60.06-32.553.527-.869 1.331-2.197.849-2.931-.421-.642-2.035-.75-2.917-.755l-2.82-.014a2.474 2.474 0 0 1-2.457-2.511l.061-5.427Zm-444.4 0a2.51 2.51 0 0 1 2.512-2.486l18.752.095a2.469 2.469 0 0 1 2.412 2.014l4.442 23.35a2.516 2.516 0 0 1-1.974 2.936l-5.3 1.051a2.468 2.468 0 0 1-2.907-1.967c-.23-1.207-.553-4.19-1.893-4.482-.978-.213-2.344 1.552-3.007 2.516-20.092 29.2-47.807 41.167-70.266 31.357-6.92-3.023-14.982-9.436-19.924-18.563-5.072-9.365-6.76-21.452-.825-35.038 11.72-26.83 45.185-31.422 63.958-13.926 1.003.935.95 2.524-.05 3.475l-4.425 4.215c-1 .952-2.566.901-3.594-.007-13.645-12.06-37.43-8.46-45.781 10.658-4.478 10.25-3.114 18.73.424 25.264 3.667 6.771 9.772 11.589 14.67 13.729 16.4 7.164 41.224-1.51 60.06-32.553.527-.869 1.331-2.197.849-2.931-.422-.642-2.036-.75-2.917-.755l-2.82-.014a2.473 2.473 0 0 1-2.457-2.511l.06-5.427Z"/></svg>