<svg xmlns="http://www.w3.org/2000/svg" width="628" height="493" fill="none"><path fill="#2F4D5C" d="M247.145 259.518h17.138v7.985h-27.2v-43.754h26.94v7.985h-16.878v9.932h15.06v7.92h-15.06v9.932Zm24.275 7.985 3.765-43.754h10.971l6.102 15.84a146.97 146.97 0 0 1 2.662 7.271c.735 2.207 1.211 3.765 1.428 4.674l.324 1.298c.693-2.856 2.208-7.271 4.545-13.243l6.167-15.84h10.971l4.544 43.754h-9.997l-1.623-16.943-.844-12.789c-1.126 3.246-2.684 7.509-4.674 12.789l-6.167 16.489h-5.908l-6.102-16.489a196.448 196.448 0 0 1-2.532-7.206c-.692-2.12-1.147-3.592-1.363-4.414l-.324-1.169c0 3.073-.195 7.336-.585 12.789l-1.363 16.943h-9.997Zm68.914-22.071h3.311c5.279 0 7.919-2.402 7.919-7.206 0-4.328-2.445-6.492-7.335-6.492h-3.895v13.698Zm-9.997-21.683h15.06c4.847 0 8.764 1.364 11.75 4.09 3.03 2.727 4.544 6.189 4.544 10.387 0 4.804-1.579 8.526-4.739 11.166-3.116 2.639-6.967 3.959-11.555 3.959h-5.063v14.152h-9.997v-43.754Zm37.228 43.754v-43.754h9.997v43.754h-9.997Zm29.129-7.985h17.137v7.985h-27.2v-43.754h26.941v7.985h-16.878v9.932h15.06v7.92h-15.06v9.932Zm56.668-35.769v7.076l-19.735 28.629h20.514v8.049h-32.523v-7.335l19.605-28.369h-19.216v-8.05h31.355Zm21.688 26.746h10.517l-.455-1.558a614.315 614.315 0 0 1-3.116-10.841c-.779-2.986-1.255-4.912-1.428-5.778l-.26-1.298c-.346 2.38-1.947 8.353-4.803 17.917l-.455 1.558Zm15.58 17.008-2.661-8.958h-15.321l-2.661 8.958h-10.452l14.606-43.754h12.594l14.606 43.754H490.63Zm-110.838 11.548v14.941h-19.759v66.266h-18.675v-66.266h-19.88v-14.941h58.314Zm12.645 81.207v-81.207h18.554v81.207h-18.554Zm-74.719-179.292v8.374c-2.829-1.735-5.979-2.603-9.449-2.603-3.055 0-5.62 1.075-7.695 3.225-2.075 2.113-3.112 4.96-3.112 8.544 0 3.508 1.037 6.299 3.112 8.374 2.075 2.037 4.753 3.055 8.035 3.055 3.545 0 6.582-.905 9.109-2.716v8.544c-2.301 1.434-5.62 2.15-9.958 2.15-5.583 0-10.26-1.792-14.032-5.375-3.735-3.621-5.602-8.299-5.602-14.032 0-5.809 1.811-10.543 5.432-14.202 3.659-3.659 8.412-5.488 14.258-5.488 4.301 0 7.601.716 9.902 2.15Zm17.669 21.67h9.166l-.396-1.358a529.446 529.446 0 0 1-2.716-9.449c-.679-2.602-1.093-4.281-1.244-5.035l-.227-1.132c-.301 2.075-1.697 7.28-4.187 15.616l-.396 1.358Zm13.58 14.825-2.32-7.809h-13.353l-2.32 7.809h-9.11l12.731-38.136h10.977l12.731 38.136h-9.336Zm13.49 0 3.282-38.136h9.562l5.319 13.806a129.05 129.05 0 0 1 2.32 6.337c.641 1.924 1.056 3.282 1.244 4.074l.283 1.131c.604-2.489 1.924-6.337 3.961-11.542l5.375-13.806h9.562l3.961 38.136h-8.714l-1.414-14.768-.736-11.146c-.98 2.829-2.338 6.544-4.073 11.146l-5.376 14.371h-5.149l-5.318-14.371a169.897 169.897 0 0 1-2.207-6.281c-.603-1.848-.999-3.13-1.188-3.847l-.283-1.018c0 2.678-.17 6.393-.509 11.146l-1.188 14.768h-8.714Zm60.065-6.96h4.583c4.3 0 6.451-1.471 6.451-4.413s-2.132-4.414-6.394-4.414h-4.64v8.827Zm0-24.217v8.544h3.225c2.264 0 3.961-.415 5.093-1.245 1.169-.829 1.754-1.923 1.754-3.281 0-2.678-1.811-4.018-5.432-4.018h-4.64Zm-8.713-6.959h14.824c4.187 0 7.374 1 9.562 2.999 2.188 1.961 3.282 4.47 3.282 7.525 0 1.999-.528 3.753-1.584 5.262-1.057 1.509-2.433 2.527-4.131 3.055 4.414 1.321 6.62 4.301 6.62 8.94 0 3.018-1.094 5.507-3.282 7.469-2.15 1.924-5.092 2.886-8.826 2.886h-16.465v-38.136Zm34.824 38.136v-38.136h8.713v38.136h-8.713Zm15.204-19.181c0-5.847 1.678-10.562 5.035-14.146 3.395-3.621 7.903-5.431 13.523-5.431 5.658 0 10.166 1.791 13.523 5.375 3.357 3.583 5.036 8.317 5.036 14.202 0 5.846-1.698 10.58-5.093 14.201-3.357 3.584-7.846 5.376-13.466 5.376-5.658 0-10.166-1.792-13.523-5.376-3.357-3.583-5.035-8.317-5.035-14.201Zm11.825-8.488c-1.66 2.075-2.49 4.904-2.49 8.488 0 3.583.83 6.431 2.49 8.543 1.66 2.075 3.904 3.112 6.733 3.112 2.829 0 5.073-1.037 6.733-3.112 1.66-2.112 2.49-4.96 2.49-8.543 0-3.584-.83-6.413-2.49-8.488-1.66-2.112-3.904-3.168-6.733-3.168-2.829 0-5.073 1.056-6.733 3.168Z"/><path fill="#61ADAD" d="M236.986 213v-33.975h13.531v5.383h-7.555v8.741h6.617v5.382h-6.617v9.086h7.555V213h-13.531Zm17.024 0v-33.975h5.975v28.494h6.814V213H254.01Zm6.462 128.32v-41.738h16.622v6.613h-9.282v10.738h8.129v6.612h-8.129v11.163h9.282v6.612h-16.622Zm35.836 0-7.704-23.538h-.243v23.538h-6.976v-41.738h6.915l7.22 21.901h.364v-21.901h6.916v41.738h-6.492Z"/><path fill="#486371" d="M208.391 64.224c3.171-7.479-.27-16.133-7.685-19.331L99.358 1.187c-6.387-2.754-13.814-.59-17.76 5.176L2.586 121.807c-4.581 6.694-2.914 15.865 3.723 20.485l26.103 18.169c6.637 4.62 15.732 2.939 20.313-3.755C56.81 150.74 65.586 135.415 73.5 137c5.779 1.157 8.981 13.899 10.284 20.658 39.492 204.846 160.731 334.734 304.98 334.788 44.445.017 103.042-15.554 151.218-53.119 49.432-38.545 87.037-99.741 87.07-187.005.064-172.319-169.572-275.994-312.065-225.914-7.616 2.677-11.076 11.37-7.931 18.859l13.928 33.162c3.146 7.489 11.715 10.913 19.397 8.439 102.026-32.863 221.799 42.64 221.753 165.43-.024 65.828-27.376 108.348-61.861 135.238-35.743 27.871-80.025 39.455-111.484 39.444-105.336-.04-218.748-105.347-247.123-317.174-.794-5.926-1.999-14.983 2.334-17.806 3.786-2.467 12.745.755 17.509 2.81l15.243 6.573c7.415 3.198 15.997-.272 19.169-7.75l12.47-29.41Z"/></svg>