<svg xmlns="http://www.w3.org/2000/svg" width="1185" height="383" fill="none"><path fill="#fff" d="M469.267 375.25c-9.907-1.79-10.624-13.664-10.636-21.462-.047-26.514-.047-53.028 0-79.542.004-.999.047-1.797.13-2.394a.535.535 0 0 1 .528-.462h8.141a1.103 1.103 0 0 1 .792.326 1.134 1.134 0 0 1 .328.794 67283.18 67283.18 0 0 0-.118 79.951c0 2.682.231 5.342.693 7.981 1.179 6.702 9.095 6.382 13.438 3.425a.709.709 0 0 1 .601-.094.713.713 0 0 1 .46.402c1.547 3.52 2.951 8.224-1.926 10.014-4.025 1.477-8.169 1.831-12.431 1.061Zm101.009-19.116a.782.782 0 0 0-.106 1.102c1.943 2.353 4.373 3.982 7.151 5.475 11.999 6.423 26.878 4.16 36.791-4.823.245-.222.565-.341.894-.335.33.007.644.139.878.371a42.091 42.091 0 0 1 3.507 3.958c1.18 1.517-.782 3.383-2.228 4.556-7.754 6.297-16.812 9.181-27.173 8.651-5.985-.304-11.527-1.588-16.627-3.851-3.377-1.499-6.15-4.231-9.136-6.577-1.298-1.013-2.163-2.264-3.176-3.502a.783.783 0 0 0-.978-.202 408.648 408.648 0 0 1-21.977 10.613c-5.025 2.243-8.736 3.551-11.134 3.922-5.748.893-11.146-.357-16.194-3.75-4.266-2.868-6.02-9.309-6.589-14.085-.11-.936-.166-3.514-.166-7.733.008-15.986-.014-31.933-.065-47.841a1.281 1.281 0 0 0-1.505-1.256c-1.414.253-2.82.237-4.219-.047a.677.677 0 0 1-.539-.646l-.196-8.053a1.013 1.013 0 0 1 .901-1.025l5.06-.533a.681.681 0 0 0 .437-.224.706.706 0 0 0 .18-.463l.029-17.202a1.17 1.17 0 0 1 1.15-1.161l8.307-.113a.438.438 0 0 1 .303.121.417.417 0 0 1 .13.3c.003 5.1.021 10.217.053 15.353.008 1.074.162 2.024.462 2.85a1 1 0 0 0 .936.663l19.743.154c.806.008 1.205.413 1.197 1.215l-.077 7.466a1.614 1.614 0 0 1-1.611 1.6l-19.898.101a.872.872 0 0 0-.806.541.9.9 0 0 0-.065.336c.06 17.756.071 35.413.036 52.972 0 1.825.693 4.817 1.641 6.394 1.932 3.195 4.622 4.803 8.071 4.823 1.335.004 3.294-.435 5.877-1.316 8.646-2.962 16.823-7.3 25.071-11.228 1.155-.551 1.368-1.499.977-2.72-2.785-8.659-2.895-17.363-.332-26.113 1.926-6.571 7.04-13.782 12.959-17.711a42.999 42.999 0 0 1 13.231-5.889c3.668-.937 7.68-.794 11.549-.706 3.229.077 7.247 1.251 10.274 2.453 6.538 2.604 11.816 6.755 15.833 12.456 2.643 3.75 4.965 9.907 5.072 14.582a.68.68 0 0 1-.207.498 6.942 6.942 0 0 1-1.885 1.262 1462.975 1462.975 0 0 0-35.682 16.668c-3.099 1.505-7.448 3.259-11.063 5.178-1.404.747-3.614 1.304-5.066 2.471Zm34.486-42.585c-6.127-5.22-17.024-5.232-24.01-2.898-6.577 2.199-10.873 6.015-14.173 12.041-4.118 7.525-3.917 15.382-2.518 23.843.114.695.387 1.169.817 1.422.19.115.383.123.581.024a1489.198 1489.198 0 0 1 24.009-11.436c6.447-3.004 14.565-7.312 22.078-10.535a5.194 5.194 0 0 0 2.021-1.535.413.413 0 0 0 .035-.504 42.171 42.171 0 0 0-8.84-10.422Zm308.183-42.082c.683 0 1.023.34 1.019 1.019l-.006 17.326a1.052 1.052 0 0 0 1.055 1.054l20.43.036a.546.546 0 0 1 .539.533l.16 9.184c.008.542-.254.773-.788.694-.494-.075-1.106-.107-1.837-.095-6.316.103-12.522.091-18.617-.036a.94.94 0 0 0-.671.269.908.908 0 0 0-.206.306.913.913 0 0 0-.071.362c.087 16.697.089 33.359.006 49.986-.016 2.808.184 4.902.598 6.281.486 1.635 2.287 6.156 4.118 6.891 4.249 1.712 8.308.646 12.367-.907a2.745 2.745 0 0 1 2.974.682l4.486 4.734a1.22 1.22 0 0 1 .068 1.592 1.22 1.22 0 0 1-.454.351 83.927 83.927 0 0 1-5.83 2.353c-5.357 1.924-10.786 2.099-16.289.527-7.478-2.133-11.288-9.368-11.785-16.715-.154-2.204-.344-4.45-.326-6.66.106-16.496.124-32.975.053-49.435a.917.917 0 0 0-.96-.913l-4.1.166a1.24 1.24 0 0 1-1.182-.736 1.235 1.235 0 0 1-.104-.479c-.03-1.902-.515-7.649.61-9.065a.508.508 0 0 1 .522-.19c1.663.32 3.306.259 4.93-.184.201-.055.3-.187.296-.397l-.059-16.988c0-.408.161-.8.449-1.089a1.531 1.531 0 0 1 1.085-.451l7.52-.006Z"/><path fill="#E1A93B" d="M968.552 288.306c4.031-.374 7.005-3.842 6.643-7.745-.362-3.904-3.924-6.765-7.954-6.391-4.031.374-7.005 3.841-6.643 7.745.362 3.904 3.923 6.765 7.954 6.391Z"/><path fill="#fff" d="M659.097 314.189c4.764-9.191 15.341-13.06 25.094-13.232 1.019-.017 1.647.765 1.624 1.796-.048 2.168-.093 4.379-.137 6.63a1.05 1.05 0 0 1-1.019 1.037c-8.651.314-16.792 2.311-21.669 10.245-3.342 5.439-4.183 10.529-4.225 17.426-.071 11.744-.122 23.473-.154 35.185 0 1.09-.545 1.637-1.635 1.641l-7.703.024a.62.62 0 0 1-.436-.179.607.607 0 0 1-.18-.431v-72.366c0-.249.124-.372.373-.368l7.922.071a1.178 1.178 0 0 1 1.167 1.168l.107 11.139c.012 1.241.302 1.312.871.214Zm58.323-.302c.788-1.025 1.47-2.371 2.293-3.336 7.401-8.711 21.906-10.944 32.453-8.888 4.267.837 8.172 2.553 11.715 5.149 7.572 5.558 10.535 16.016 10.511 25.206-.039 14.178-.081 28.307-.124 42.39a.717.717 0 0 1-.218.518.722.722 0 0 1-.523.205l-7.851-.19a1.308 1.308 0 0 1-1.28-1.303 9398.052 9398.052 0 0 1-.047-39.25c.012-12.787-4.45-23.156-18.955-24.134-4.308-.29-9.285-.053-13.314 1.357-5.705 2.003-9.878 5.677-12.521 11.021-2.708 5.469-2.66 10.796-2.773 18.333a1391.219 1391.219 0 0 0-.106 32.477 1.543 1.543 0 0 1-1.488 1.553l-6.435.248a1.935 1.935 0 0 1-1.422-.543 1.942 1.942 0 0 1-.592-1.4l.16-70.837a.923.923 0 0 1 .275-.656.913.913 0 0 1 .661-.263l7.638.16a.725.725 0 0 1 .705.699l.426 11.229c.032.837.303.922.812.255Zm312.3 48.765c.41-1.298.66-2.637 1.13-3.828 2.61-6.719 5.15-13.468 7.62-20.247.79-2.174 1.88-4.396 2.61-6.399 3.46-9.485 7-18.943 10.59-28.377.56-1.463.68-2.02 2.41-2.275 2.37-.348 4.65-.33 6.84.053.18.031.35.102.49.206.15.104.27.239.36.396.08.157.14.331.15.51.01.179-.02.358-.09.524-4.58 11.347-8.79 22.836-13.4 34.183-1.54 3.769-2.95 7.94-4.32 11.389a878.835 878.835 0 0 0-7.78 20.454c-.64 1.748-1.47 3.324-2.29 4.894a1.536 1.536 0 0 1-1.36.83l-8.57.053c-.26.001-.5-.086-.7-.247-.2-.161-.34-.385-.39-.636-.32-1.558-.62-3.093-1.24-4.586-4.95-11.922-8.06-20.697-11.95-30.498-3.25-8.177-5.98-16.093-9.31-24.015-1.599-3.786-3.104-8.1-4.852-12.165a1.146 1.146 0 0 1 1.162-1.588c2.212.217 4.49.33 6.82.338 1.65.006 2.41.752 2.94 2.186 7.17 19.266 14.33 38.535 21.48 57.808.24.66.6 1.092 1.08 1.298.29.118.48.031.57-.261Zm-56.793-59.449.023 69.73a1.879 1.879 0 0 1-1.73 1.872l-6.352.492a1.884 1.884 0 0 1-1.869-1.119 1.879 1.879 0 0 1-.157-.753l.012-69.694a1.88 1.88 0 0 1 1.724-1.873l6.316-.527a1.873 1.873 0 0 1 1.427.491 1.873 1.873 0 0 1 .606 1.381Z"/><path fill="#E1A93B" d="M1155.93 324.6a2.506 2.506 0 0 1 2.51-2.486l18.75.095c1.18.006 2.19.849 2.42 2.015l4.44 23.35a2.523 2.523 0 0 1-1.98 2.935l-5.3 1.052a2.457 2.457 0 0 1-2.9-1.968c-.23-1.206-.56-4.19-1.9-4.481-.97-.214-2.34 1.552-3 2.515-20.1 29.201-47.81 41.168-70.27 31.357-6.92-3.023-14.98-9.436-19.92-18.563-5.08-9.365-6.76-21.451-.83-35.038 11.72-26.829 45.19-31.421 63.96-13.926 1 .935.95 2.524-.05 3.476l-4.43 4.214c-1 .952-2.56.902-3.59-.007-13.65-12.06-37.43-8.46-45.78 10.658-4.48 10.25-3.12 18.73.42 25.264 3.67 6.772 9.77 11.589 14.67 13.729 16.4 7.164 41.23-1.509 60.06-32.553.53-.868 1.33-2.196.85-2.931-.42-.641-2.03-.75-2.91-.754l-2.83-.015a2.466 2.466 0 0 1-2.45-2.511l.06-5.427Z"/><path fill="#fff" d="M865.352 324.6a2.51 2.51 0 0 1 2.512-2.486l18.752.095a2.468 2.468 0 0 1 2.412 2.015l4.442 23.35a2.515 2.515 0 0 1-1.974 2.935l-5.3 1.052a2.47 2.47 0 0 1-2.907-1.968c-.229-1.206-.553-4.19-1.892-4.481-.979-.214-2.345 1.552-3.008 2.515-20.091 29.201-47.807 41.168-70.266 31.357-6.92-3.023-14.982-9.436-19.924-18.563-5.071-9.365-6.76-21.451-.825-35.038 11.72-26.829 45.185-31.421 63.958-13.926 1.003.935.95 2.524-.049 3.476l-4.426 4.214c-.999.952-2.566.902-3.594-.007-13.645-12.06-37.43-8.46-45.781 10.658-4.477 10.25-3.114 18.73.424 25.264 3.667 6.772 9.772 11.589 14.67 13.729 16.4 7.164 41.224-1.509 60.06-32.553.527-.868 1.331-2.196.849-2.931-.421-.641-2.035-.75-2.917-.754l-2.82-.015a2.473 2.473 0 0 1-2.457-2.511l.061-5.427Zm-444.401 0a2.511 2.511 0 0 1 2.513-2.486l18.752.095a2.47 2.47 0 0 1 2.412 2.015l4.442 23.35a2.516 2.516 0 0 1-1.974 2.935l-5.301 1.052a2.468 2.468 0 0 1-2.906-1.968c-.23-1.206-.553-4.19-1.893-4.481-.978-.214-2.344 1.552-3.007 2.515-20.092 29.201-47.807 41.168-70.266 31.357-6.92-3.023-14.982-9.436-19.924-18.563-5.072-9.365-6.76-21.451-.825-35.038 11.72-26.829 45.185-31.421 63.958-13.926 1.003.935.95 2.524-.05 3.476l-4.425 4.214c-.999.952-2.567.902-3.594-.007-13.646-12.06-37.43-8.46-45.782 10.658-4.477 10.25-3.113 18.73.425 25.264 3.667 6.772 9.771 11.589 14.67 13.729 16.4 7.164 41.223-1.509 60.06-32.553.527-.868 1.331-2.196.849-2.931-.422-.641-2.036-.75-2.917-.754l-2.821-.015a2.472 2.472 0 0 1-2.456-2.511l.06-5.427Z"/><path fill="#E1A93B" d="M0 245.871 13.33 90.967h38.841l21.604 56.078c3.677 9.346 6.818 17.927 9.423 25.741 2.605 7.814 4.29 13.33 5.056 16.547l1.15 4.597c2.45-10.113 7.813-25.741 16.087-46.885l21.834-56.078h38.841l16.088 154.904H146.86l-5.745-59.985-2.988-45.276c-3.984 11.491-9.5 26.583-16.548 45.276l-21.833 58.376H78.83l-21.604-58.376c-3.524-9.5-6.511-18.003-8.963-25.511-2.452-7.508-4.06-12.717-4.826-15.628l-1.15-4.137c0 10.878-.69 25.97-2.068 45.276l-4.826 59.985H0Zm258.92 1.839c-18.233 0-32.33-5.44-42.289-16.318-9.959-11.032-14.939-25.128-14.939-42.288 0-17.927 5.21-32.636 15.629-44.128 10.419-11.644 24.285-17.467 41.599-17.467 18.079 0 32.099 5.593 42.058 16.778 9.959 11.185 14.939 25.434 14.939 42.748 0 17.62-5.056 32.176-15.169 43.667-9.959 11.339-23.902 17.008-41.828 17.008Zm-.23-93.77c-7.355 0-12.871 3.141-16.548 9.423-3.677 6.282-5.516 14.402-5.516 24.362 0 9.959 1.839 18.156 5.516 24.591 3.831 6.282 9.5 9.423 17.007 9.423 7.355 0 12.794-3.064 16.318-9.193 3.677-6.282 5.516-14.403 5.516-24.362 0-22.829-7.431-34.244-22.293-34.244Zm112.704-24.592v18.157c6.435-12.871 17.39-19.306 32.865-19.306 16.395 0 27.273 7.354 32.636 22.064 2.604-6.895 6.971-12.258 13.1-16.088 6.129-3.984 13.33-5.976 21.604-5.976 11.491 0 20.531 3.677 27.12 11.032 6.741 7.201 10.112 17.85 10.112 31.946v74.694h-33.555v-69.178c0-6.589-1.302-11.798-3.907-15.629-2.605-3.83-6.359-5.745-11.262-5.745-5.209 0-9.882 2.145-14.019 6.435-3.984 4.137-5.976 11.645-5.976 22.523v61.594h-33.555v-69.178c0-6.589-1.302-11.798-3.907-15.629-2.604-3.83-6.358-5.745-11.261-5.745-5.21 0-9.883 2.145-14.02 6.435-3.984 4.137-5.975 11.645-5.975 22.523v61.594h-33.555V129.348h33.555Zm231.293 47.575v-2.758c-1.072-13.637-7.048-20.455-17.926-20.455-5.363 0-10.113 1.992-14.25 5.975-4.137 3.831-6.895 9.577-8.274 17.238h40.45Zm24.132 34.244v28.039c-7.967 5.21-20.148 7.814-36.543 7.814-19.152 0-34.091-5.516-44.816-16.547-10.572-11.185-15.858-25.511-15.858-42.978 0-18.54 5.133-33.019 15.398-43.438 10.419-10.572 23.213-15.858 38.382-15.858 15.628 0 27.962 4.597 37.002 13.79 9.04 9.04 13.56 22.599 13.56 40.679 0 3.524-.613 9.576-1.839 18.157h-68.489c2.299 6.435 6.282 11.415 11.951 14.939 5.67 3.524 12.488 5.286 20.455 5.286 11.798 0 22.064-3.295 30.797-9.883Zm64.629-81.819v19.765c2.911-6.435 7.354-11.491 13.33-15.168 6.128-3.831 13.406-5.746 21.833-5.746 11.951 0 21.298 3.601 28.039 10.802 6.742 7.048 10.113 17.467 10.113 31.257v75.613h-33.555v-69.408c0-6.895-1.609-12.104-4.827-15.628-3.217-3.678-7.737-5.516-13.559-5.516-6.129 0-11.262 2.451-15.399 7.354-3.984 4.75-5.975 11.951-5.975 21.604v61.594h-33.555V129.348h33.555Zm138.604 24.592v53.55c0 4.137 1.149 7.278 3.448 9.423 2.451 2.145 5.592 3.217 9.422 3.217 6.129 0 11.568-1.532 16.318-4.596v27.809c-5.669 2.452-13.33 3.677-22.983 3.677-26.506 0-39.76-13.253-39.76-39.76v-53.32H779.72v-24.592h16.777v-27.579h33.555v27.579h27.12v24.592h-27.12Zm216.688-24.592v18.157c6.43-12.871 17.39-19.306 32.86-19.306 16.4 0 27.28 7.354 32.64 22.064 2.6-6.895 6.97-12.258 13.1-16.088 6.13-3.984 13.33-5.976 21.6-5.976 11.5 0 20.54 3.677 27.12 11.032 6.75 7.201 10.12 17.85 10.12 31.946v74.694h-33.56v-69.178c0-6.589-1.3-11.798-3.91-15.629-2.6-3.83-6.35-5.745-11.26-5.745-5.21 0-9.88 2.145-14.02 6.435-3.98 4.137-5.97 11.645-5.97 22.523v61.594h-33.56v-69.178c0-6.589-1.3-11.798-3.9-15.629-2.61-3.83-6.36-5.745-11.27-5.745-5.21 0-9.88 2.145-14.02 6.435-3.98 4.137-5.97 11.645-5.97 22.523v61.594h-33.56V129.348h33.56Z"/><path fill="#E1A93B" d="M1018.53 72.636c1.14-2.359-1.04-4.822-3.39-3.654-6.12 3.044-11.25 7.49-15.469 13.02-8.669 11.367-13.965 28.097-13.965 47.869s-.119 116-.119 116h-33.555v-18.616c-6.129 13.023-17.927 19.535-35.394 19.535-11.951 0-21.297-3.294-28.039-9.882-6.588-6.742-9.883-16.625-9.883-29.648v-77.912h33.555v70.327c0 13.637 5.976 20.455 17.927 20.455 14.556 0 21.834-9.729 21.834-29.188.079-7.272-.047-14.76-.175-22.357-.623-37.009-1.29-76.619 21.576-106.596 10.025-13.143 23.527-22.867 39.867-27.534 2.23-.636 3.11-3.414 1.55-5.125l-7.42-8.133a3 3 0 0 1 .19-4.239L1025.35.784a3.002 3.002 0 0 1 4.24.194l35.89 39.335c.82.908 1.01 2.228.48 3.333l-24.3 50.028a3.003 3.003 0 0 1-4.01 1.388l-21.59-10.486a3.005 3.005 0 0 1-1.39-4.01l3.86-7.93Z"/></svg>